<svg xmlns="http://www.w3.org/2000/svg" xmlns:xlink="http://www.w3.org/1999/xlink" xmlns:inkscape="http://www.inkscape.org/namespaces/inkscape" version="1.1" width="547" height="552" viewBox="0 0 547 552">
<defs>
<clipPath id="clip_0">
<path transform="matrix(1,0,0,-1,0,552)" d="M0-.000001370907H546.9818V552H0Z"/>
</clipPath>
<clipPath id="clip_1">
<path transform="matrix(1,0,0,-1,0,552)" d="M2.763615 8.109098H546.2545V551.6H2.763615Z"/>
</clipPath>
<clipPath id="clip_2">
<path transform="matrix(1,0,0,-1,0,552)" d="M73.34195 62.83561H529.9498V535.2953H73.34195Z"/>
</clipPath>
<clipPath id="clip_3">
<path transform="matrix(1,0,0,-1,0,552)" d="M2.763615 8.109098H546.2545V551.6H2.763615Z"/>
</clipPath>
<clipPath id="clip_4">
<path transform="matrix(1,0,0,-1,0,552)" d="M73.34195 62.83561H529.9498V535.2953H73.34195Z"/>
</clipPath>
<clipPath id="clip_5">
<path transform="matrix(1,0,0,-1,0,552)" d="M2.763615 8.109098H546.2545V551.6H2.763615Z"/>
</clipPath>
<clipPath id="clip_6">
<path transform="matrix(1,0,0,-1,0,552)" d="M73.34195 62.83561H529.9498V535.2953H73.34195Z"/>
</clipPath>
<clipPath id="clip_7">
<path transform="matrix(1,0,0,-1,0,552)" d="M2.763615 8.109098H546.2545V551.6H2.763615Z"/>
</clipPath>
<clipPath id="clip_8">
<path transform="matrix(1,0,0,-1,0,552)" d="M73.34195 62.83561H529.9498V535.2953H73.34195Z"/>
</clipPath>
<clipPath id="clip_9">
<path transform="matrix(1,0,0,-1,0,552)" d="M2.763615 8.109098H546.2545V551.6H2.763615Z"/>
</clipPath>
<clipPath id="clip_10">
<path transform="matrix(1,0,0,-1,0,552)" d="M73.34195 62.83561H529.9498V535.2953H73.34195Z"/>
</clipPath>
<clipPath id="clip_11">
<path transform="matrix(1,0,0,-1,0,552)" d="M2.763615 8.109098H546.2545V551.6H2.763615Z"/>
</clipPath>
<clipPath id="clip_12">
<path transform="matrix(1,0,0,-1,0,552)" d="M73.34195 62.83561H529.9498V535.2953H73.34195Z"/>
</clipPath>
<clipPath id="clip_13">
<path transform="matrix(1,0,0,-1,0,552)" d="M2.763615 8.109098H546.2545V551.6H2.763615Z"/>
</clipPath>
<clipPath id="clip_14">
<path transform="matrix(1,0,0,-1,0,552)" d="M73.34195 62.83561H529.9498V535.2953H73.34195Z"/>
</clipPath>
<clipPath id="clip_15">
<path transform="matrix(1,0,0,-1,0,552)" d="M2.763615 8.109098H546.2545V551.6H2.763615Z"/>
</clipPath>
<clipPath id="clip_16">
<path transform="matrix(1,0,0,-1,0,552)" d="M73.34195 62.83561H529.9498V535.2953H73.34195Z"/>
</clipPath>
<clipPath id="clip_17">
<path transform="matrix(1,0,0,-1,0,552)" d="M2.763615 8.109098H546.2545V551.6H2.763615Z"/>
</clipPath>
<clipPath id="clip_18">
<path transform="matrix(1,0,0,-1,0,552)" d="M73.34195 62.83561H529.9498V535.2953H73.34195Z"/>
</clipPath>
<clipPath id="clip_19">
<path transform="matrix(1,0,0,-1,0,552)" d="M2.763615 8.109098H546.2545V551.6H2.763615Z"/>
</clipPath>
<clipPath id="clip_20">
<path transform="matrix(1,0,0,-1,0,552)" d="M73.34195 62.83561H529.9498V535.2953H73.34195Z"/>
</clipPath>
<clipPath id="clip_21">
<path transform="matrix(1,0,0,-1,0,552)" d="M2.763615 8.109098H546.2545V551.6H2.763615Z"/>
</clipPath>
<clipPath id="clip_22">
<path transform="matrix(1,0,0,-1,0,552)" d="M73.34195 62.83561H529.9498V535.2953H73.34195Z"/>
</clipPath>
<clipPath id="clip_23">
<path transform="matrix(1,0,0,-1,0,552)" d="M2.763615 8.109098H546.2545V551.6H2.763615Z"/>
</clipPath>
<clipPath id="clip_24">
<path transform="matrix(1,0,0,-1,0,552)" d="M73.34195 62.83561H529.9498V535.2953H73.34195Z"/>
</clipPath>
<clipPath id="clip_25">
<path transform="matrix(1,0,0,-1,0,552)" d="M84.03221 76.83129H104.1615V96.96058H84.03221Z"/>
</clipPath>
<clipPath id="clip_26">
<path transform="matrix(1,0,0,-1,0,552)" d="M176.2762 81.55249H196.40549V101.68178H176.2762Z"/>
</clipPath>
<clipPath id="clip_27">
<path transform="matrix(1,0,0,-1,0,552)" d="M291.5812 74.24641H311.7105V94.375698H291.5812Z"/>
</clipPath>
<clipPath id="clip_28">
<path transform="matrix(1,0,0,-1,0,552)" d="M406.8863 257.1779H427.0156V277.3072H406.8863Z"/>
</clipPath>
<clipPath id="clip_29">
<path transform="matrix(1,0,0,-1,0,552)" d="M499.1303 298.8676H519.2596V318.99693H499.1303Z"/>
</clipPath>
<clipPath id="clip_30">
<path transform="matrix(1,0,0,-1,0,552)" d="M73.34195 62.83561H529.9498V535.2953H73.34195Z"/>
</clipPath>
<clipPath id="clip_31">
<path transform="matrix(1,0,0,-1,0,552)" d="M84.03221 426.664H104.1615V446.7933H84.03221Z"/>
</clipPath>
<clipPath id="clip_32">
<path transform="matrix(1,0,0,-1,0,552)" d="M176.2762 376.3926H196.40549V396.5219H176.2762Z"/>
</clipPath>
<clipPath id="clip_33">
<path transform="matrix(1,0,0,-1,0,552)" d="M291.5812 422.334H311.7105V442.46333H291.5812Z"/>
</clipPath>
<clipPath id="clip_34">
<path transform="matrix(1,0,0,-1,0,552)" d="M406.8863 421.7208H427.0156V441.8501H406.8863Z"/>
</clipPath>
<clipPath id="clip_35">
<path transform="matrix(1,0,0,-1,0,552)" d="M499.1303 255.6021H519.2596V275.73139H499.1303Z"/>
</clipPath>
<clipPath id="clip_36">
<path transform="matrix(1,0,0,-1,0,552)" d="M73.34195 62.83561H529.9498V535.2953H73.34195Z"/>
</clipPath>
<clipPath id="clip_37">
<path transform="matrix(1,0,0,-1,0,552)" d="M84.03221 461.1879H104.1615V481.3172H84.03221Z"/>
</clipPath>
<clipPath id="clip_38">
<path transform="matrix(1,0,0,-1,0,552)" d="M176.2762 483.1018H196.40549V503.2311H176.2762Z"/>
</clipPath>
<clipPath id="clip_39">
<path transform="matrix(1,0,0,-1,0,552)" d="M291.5812 473.1492H311.7105V493.2785H291.5812Z"/>
</clipPath>
<clipPath id="clip_40">
<path transform="matrix(1,0,0,-1,0,552)" d="M406.8863 468.9801H427.0156V489.1094H406.8863Z"/>
</clipPath>
<clipPath id="clip_41">
<path transform="matrix(1,0,0,-1,0,552)" d="M499.1303 503.7552H519.2596V523.88449H499.1303Z"/>
</clipPath>
<clipPath id="clip_42">
<path transform="matrix(1,0,0,-1,0,552)" d="M2.763615 8.109098H546.2545V551.6H2.763615Z"/>
</clipPath>
</defs>
<g clip-path="url(#clip_0)">
<path transform="matrix(1,0,0,-1,0,552)" d="M0 552H546.9818V0H0Z" fill="#ffffff"/>
</g>
<g clip-path="url(#clip_1)">
<path transform="matrix(1,0,0,-1,0,552)" d="M2.763615 8.109098H546.2545V551.6H2.763615Z" fill="#ffffff"/>
<path transform="matrix(1,0,0,-1,0,552)" d="M73.34195 62.83561H529.9498V535.2953H73.34195Z" fill="#ffffff"/>
</g>
<g clip-path="url(#clip_2)">
<path transform="matrix(1.258081,0,0,-1.258081,2.763615,543.8909)" stroke-width=".7" stroke-linecap="round" stroke-linejoin="round" fill="none" stroke="#cccccc" stroke-opacity=".7" d="M72.59727 43.5V419.04"/>
</g>
<g clip-path="url(#clip_3)">
<path transform="matrix(1,0,0,-1,0,552)" d="M97.70511 52.67645C97.70511 50.9403 97.38807 49.61177 96.78419 48.70595 96.18031 47.80013 95.2745 47.34722 94.08184 47.34722 92.87408 47.34722 91.98336 47.80013 91.37948 48.70595 90.7756 49.61177 90.48876 50.92521 90.48876 52.67645 90.48876 54.4579 90.7756 55.78643 91.36438 56.67715 91.93807 57.56787 92.85898 58.02078 94.12713 58.02078 95.33488 58.02078 96.2407 57.56787 96.82948 56.67715 97.40317 55.77133 97.70511 54.4428 97.70511 52.67645ZM96.36148 52.67645C96.36148 54.17105 96.18031 55.25804 95.83308 55.9374 95.48585 56.60167 94.91217 56.9489 94.12713 56.9489 93.31189 56.9489 92.72311 56.61676 92.36078 55.9525 91.99845 55.28823 91.83239 54.18615 91.83239 52.67645 91.83239 51.19695 92.01355 50.12507 92.37588 49.4457 92.7382 48.75124 93.31189 48.41911 94.09693 48.41911 94.86688 48.41911 95.44056 48.76634 95.80289 49.4608 96.16522 50.15526 96.36148 51.22715 96.36148 52.67645Z" fill="#262626"/>
</g>
<g clip-path="url(#clip_4)">
<path transform="matrix(1.258081,0,0,-1.258081,2.763615,543.8909)" stroke-width=".7" stroke-linecap="round" stroke-linejoin="round" fill="none" stroke="#cccccc" stroke-opacity=".7" d="M145.9185 43.5V419.04"/>
</g>
<g clip-path="url(#clip_5)">
<path transform="matrix(1,0,0,-1,0,552)" d="M184.4388 49.83822V47.4831H183.1858V49.83822H178.2943V50.86482L183.0499 57.86981H184.4388V50.87992H185.9032V49.83822H184.4388ZM183.1858 56.37521C183.1707 56.34502 183.0952 56.20915 182.9744 55.98269 182.8536 55.74114 182.7479 55.59017 182.6876 55.49959L180.0305 51.57438 179.638 51.03089 179.5172 50.87992H183.1858V56.37521Z" fill="#262626"/>
<path transform="matrix(1,0,0,-1,0,552)" d="M194.1462 52.67645C194.1462 50.9403 193.8291 49.61177 193.2252 48.70595 192.6214 47.80013 191.7155 47.34722 190.5229 47.34722 189.3151 47.34722 188.4244 47.80013 187.8205 48.70595 187.2166 49.61177 186.9298 50.92521 186.9298 52.67645 186.9298 54.4579 187.2166 55.78643 187.8054 56.67715 188.3791 57.56787 189.3 58.02078 190.5682 58.02078 191.7759 58.02078 192.6818 57.56787 193.2705 56.67715 193.8442 55.77133 194.1462 54.4428 194.1462 52.67645ZM192.8025 52.67645C192.8025 54.17105 192.6214 55.25804 192.2741 55.9374 191.9269 56.60167 191.3532 56.9489 190.5682 56.9489 189.7529 56.9489 189.1642 56.61676 188.8018 55.9525 188.4395 55.28823 188.2734 54.18615 188.2734 52.67645 188.2734 51.19695 188.4546 50.12507 188.8169 49.4457 189.1793 48.75124 189.7529 48.41911 190.538 48.41911 191.3079 48.41911 191.8816 48.76634 192.2439 49.4608 192.6063 50.15526 192.8025 51.22715 192.8025 52.67645Z" fill="#262626"/>
</g>
<g clip-path="url(#clip_6)">
<path transform="matrix(1.258081,0,0,-1.258081,2.763615,543.8909)" stroke-width=".7" stroke-linecap="round" stroke-linejoin="round" fill="none" stroke="#cccccc" stroke-opacity=".7" d="M237.57 43.5V419.04"/>
</g>
<g clip-path="url(#clip_7)">
<path transform="matrix(1,0,0,-1,0,552)" d="M300.9365 52.88781C300.9365 51.10637 300.6043 49.73255 299.9552 48.78144 299.2909 47.81523 298.37 47.34722 297.1773 47.34722 296.3621 47.34722 295.6978 47.51329 295.2147 47.84542 294.7316 48.17756 294.3844 48.73615 294.173 49.50609L295.4412 49.70235C295.6978 48.82673 296.2866 48.40401 297.1924 48.40401 297.9473 48.40401 298.5361 48.75124 298.9588 49.4608 299.3815 50.17036 299.5929 51.18185 299.623 52.49529 299.4117 52.04238 299.0796 51.69515 298.6115 51.42341 298.1284 51.15166 297.6151 51.03089 297.0415 51.03089 296.1055 51.03089 295.3506 51.34792 294.792 51.98199 294.2334 52.61607 293.9617 53.47659 293.9617 54.53338 293.9617 55.62036 294.2636 56.46579 294.8675 57.08477 295.4714 57.70375 296.3319 58.02078 297.4189 58.02078 298.5663 58.02078 299.4419 57.58297 300.0458 56.73754 300.6345 55.87701 300.9365 54.59377 300.9365 52.88781ZM299.4872 54.17105C299.4872 55.00139 299.2909 55.66565 298.9135 56.17895 298.521 56.69225 298.0077 56.9489 297.3736 56.9489 296.7244 56.9489 296.2111 56.72244 295.8488 56.29973 295.4865 55.86192 295.3053 55.27313 295.3053 54.53338 295.3053 53.77853 295.4865 53.17465 295.8488 52.73684 296.2111 52.28393 296.7244 52.07258 297.3585 52.07258 297.7359 52.07258 298.0832 52.14806 298.4153 52.32922 298.7474 52.51039 299.0041 52.75194 299.2003 53.06898 299.3815 53.38601 299.4872 53.74834 299.4872 54.17105Z" fill="#262626"/>
<path transform="matrix(1,0,0,-1,0,552)" d="M309.4512 52.67645C309.4512 50.9403 309.1341 49.61177 308.5303 48.70595 307.9264 47.80013 307.0206 47.34722 305.8279 47.34722 304.6201 47.34722 303.7294 47.80013 303.1255 48.70595 302.5217 49.61177 302.2348 50.92521 302.2348 52.67645 302.2348 54.4579 302.5217 55.78643 303.1104 56.67715 303.6841 57.56787 304.605 58.02078 305.8732 58.02078 307.0809 58.02078 307.9868 57.56787 308.5755 56.67715 309.1492 55.77133 309.4512 54.4428 309.4512 52.67645ZM308.1075 52.67645C308.1075 54.17105 307.9264 55.25804 307.5791 55.9374 307.2319 56.60167 306.6582 56.9489 305.8732 56.9489 305.058 56.9489 304.4692 56.61676 304.1068 55.9525 303.7445 55.28823 303.5785 54.18615 303.5785 52.67645 303.5785 51.19695 303.7596 50.12507 304.1219 49.4457 304.4843 48.75124 305.058 48.41911 305.843 48.41911 306.6129 48.41911 307.1866 48.76634 307.549 49.4608 307.9113 50.15526 308.1075 51.22715 308.1075 52.67645Z" fill="#262626"/>
</g>
<g clip-path="url(#clip_8)">
<path transform="matrix(1.258081,0,0,-1.258081,2.763615,543.8909)" stroke-width=".7" stroke-linecap="round" stroke-linejoin="round" fill="none" stroke="#cccccc" stroke-opacity=".7" d="M329.2215 43.5V419.04"/>
</g>
<g clip-path="url(#clip_9)">
<path transform="matrix(1,0,0,-1,0,552)" d="M405.5076 47.4831V48.61537H408.1496V56.60167L405.8096 54.9259V56.17895L408.2704 57.86981H409.4932V48.61537H412.0144V47.4831H405.5076Z" fill="#262626"/>
<path transform="matrix(1,0,0,-1,0,552)" d="M419.2459 49.83822V47.4831H417.9928V49.83822H413.1014V50.86482L417.857 57.86981H419.2459V50.87992H420.7103V49.83822H419.2459ZM417.9928 56.37521C417.9777 56.34502 417.9022 56.20915 417.7815 55.98269 417.6607 55.74114 417.555 55.59017 417.4946 55.49959L414.8376 51.57438 414.445 51.03089 414.3243 50.87992H417.9928V56.37521Z" fill="#262626"/>
<path transform="matrix(1,0,0,-1,0,552)" d="M428.9532 52.67645C428.9532 50.9403 428.6362 49.61177 428.0323 48.70595 427.4284 47.80013 426.5226 47.34722 425.33 47.34722 424.1222 47.34722 423.2315 47.80013 422.6276 48.70595 422.0237 49.61177 421.7369 50.92521 421.7369 52.67645 421.7369 54.4579 422.0237 55.78643 422.6125 56.67715 423.1862 57.56787 424.1071 58.02078 425.3752 58.02078 426.583 58.02078 427.4888 57.56787 428.0776 56.67715 428.6513 55.77133 428.9532 54.4428 428.9532 52.67645ZM427.6096 52.67645C427.6096 54.17105 427.4284 55.25804 427.0812 55.9374 426.734 56.60167 426.1603 56.9489 425.3752 56.9489 424.56 56.9489 423.9712 56.61676 423.6089 55.9525 423.2466 55.28823 423.0805 54.18615 423.0805 52.67645 423.0805 51.19695 423.2617 50.12507 423.624 49.4457 423.9863 48.75124 424.56 48.41911 425.345 48.41911 426.115 48.41911 426.6887 48.76634 427.051 49.4608 427.4133 50.15526 427.6096 51.22715 427.6096 52.67645Z" fill="#262626"/>
</g>
<g clip-path="url(#clip_10)">
<path transform="matrix(1.258081,0,0,-1.258081,2.763615,543.8909)" stroke-width=".7" stroke-linecap="round" stroke-linejoin="round" fill="none" stroke="#cccccc" stroke-opacity=".7" d="M402.5427 43.5V419.04"/>
</g>
<g clip-path="url(#clip_11)">
<path transform="matrix(1,0,0,-1,0,552)" d="M497.7516 47.4831V48.61537H500.3936V56.60167L498.0536 54.9259V56.17895L500.5144 57.86981H501.7372V48.61537H504.2584V47.4831H497.7516Z" fill="#262626"/>
<path transform="matrix(1,0,0,-1,0,552)" d="M512.7429 50.38172C512.7429 49.41551 512.4259 48.67576 511.822 48.14736 511.2181 47.60387 510.3425 47.34722 509.1951 47.34722 508.078 47.34722 507.2174 47.60387 506.5834 48.13227 505.9493 48.64556 505.6474 49.40041 505.6474 50.36662 505.6474 51.03089 505.8436 51.60457 506.2361 52.07258 506.6287 52.52549 507.1269 52.81233 507.7307 52.91801V52.9482C507.1571 53.06898 506.7192 53.35582 506.3871 53.80873 506.055 54.24654 505.904 54.75984 505.904 55.36372 505.904 56.14876 506.1909 56.79793 506.7796 57.28103 507.3684 57.76413 508.1686 58.02078 509.165 58.02078 510.1915 58.02078 510.9917 57.77923 511.5956 57.29613 512.1843 56.81302 512.4863 56.16385 512.4863 55.34862 512.4863 54.74474 512.3202 54.23144 511.9881 53.79363 511.656 53.34072 511.203 53.06898 510.6445 52.9633V52.9331C511.2936 52.81233 511.8069 52.54058 512.1843 52.08767 512.5467 51.63476 512.7429 51.06108 512.7429 50.38172ZM511.0974 55.27313C511.0974 56.4507 510.4482 57.03948 509.165 57.03948 508.5309 57.03948 508.0629 56.88851 507.7307 56.58657 507.3986 56.28463 507.2476 55.84682 507.2476 55.27313 507.2476 54.66925 507.4137 54.21635 507.7458 53.91441 508.078 53.59737 508.5611 53.4464 509.1801 53.4464 509.799 53.4464 510.267 53.58227 510.5992 53.86912 510.9313 54.15596 511.0974 54.62396 511.0974 55.27313ZM511.354 50.50249C511.354 51.13656 511.1578 51.61967 510.7803 51.9518 510.3878 52.28393 509.8594 52.45 509.165 52.45 508.4856 52.45 507.9572 52.26884 507.5798 51.92161 507.2023 51.55928 507.0212 51.07618 507.0212 50.4723 507.0212 49.03808 507.7458 48.32853 509.2102 48.32853 509.9349 48.32853 510.4633 48.49459 510.8256 48.84182 511.1729 49.18905 511.354 49.74764 511.354 50.50249Z" fill="#262626"/>
<path transform="matrix(1,0,0,-1,0,552)" d="M521.1972 52.67645C521.1972 50.9403 520.8802 49.61177 520.2763 48.70595 519.6724 47.80013 518.7666 47.34722 517.574 47.34722 516.3662 47.34722 515.4755 47.80013 514.8716 48.70595 514.2677 49.61177 513.9809 50.92521 513.9809 52.67645 513.9809 54.4579 514.2677 55.78643 514.8565 56.67715 515.4302 57.56787 516.3511 58.02078 517.6193 58.02078 518.827 58.02078 519.7328 57.56787 520.3216 56.67715 520.8953 55.77133 521.1972 54.4428 521.1972 52.67645ZM519.8536 52.67645C519.8536 54.17105 519.6724 55.25804 519.3252 55.9374 518.978 56.60167 518.4043 56.9489 517.6193 56.9489 516.804 56.9489 516.2152 56.61676 515.8529 55.9525 515.4906 55.28823 515.3245 54.18615 515.3245 52.67645 515.3245 51.19695 515.5057 50.12507 515.868 49.4457 516.2303 48.75124 516.804 48.41911 517.5891 48.41911 518.359 48.41911 518.9327 48.76634 519.295 49.4608 519.6573 50.15526 519.8536 51.22715 519.8536 52.67645Z" fill="#262626"/>
<path transform="matrix(1,0,0,-1,0,552)" d="M228.8978 26.5675 227.5063 30.10774H221.9934L220.602 26.5675H218.8935L223.8428 38.68534H225.7098L230.571 26.5675H228.8978ZM224.7411 37.45242 224.6706 37.20583C224.5297 36.71267 224.3183 36.11382 224.0365 35.37407L222.4866 31.3935H227.0131L225.4632 35.39168C225.2871 35.77917 225.1285 36.23711 224.9876 36.73028L224.7411 37.45242Z" fill="#262626"/>
<path transform="matrix(1,0,0,-1,0,552)" d="M237.7043 26.5675V32.4679C237.7043 33.06675 237.6339 33.5423 237.5106 33.89457 237.3873 34.22922 237.1935 34.4758 236.9293 34.6167 236.6651 34.75761 236.2777 34.84567 235.7845 34.84567 235.0271 34.84567 234.4283 34.58148 234.0056 34.0707 233.5828 33.55992 233.3715 32.85539 233.3715 31.95712V26.5675H231.8215V33.89457C231.8215 34.96897 231.8039 35.62065 231.7687 35.86724H233.2306C233.2306 35.83201 233.2482 35.76156 233.2482 35.63827 233.2482 35.49736 233.2658 35.35646 233.2658 35.19794 233.2658 35.03942 233.2834 34.74 233.301 34.28205H233.3363C233.6885 34.91613 234.0936 35.37407 234.5692 35.63827 235.0271 35.90246 235.6084 36.04337 236.3129 36.04337 237.3344 36.04337 238.0742 35.77917 238.5497 35.286 239.0077 34.77522 239.2543 33.92979 239.2543 32.76733V26.5675H237.7043Z" fill="#262626"/>
<path transform="matrix(1,0,0,-1,0,552)" d="M245.1194 22.92158C244.0979 22.92158 243.2877 23.13294 242.6888 23.52043 242.09 23.92553 241.7025 24.48915 241.5264 25.2289L243.0763 25.45788C243.182 25.03516 243.411 24.70051 243.7632 24.45393 244.1155 24.22496 244.5734 24.10166 245.1547 24.10166 246.687 24.10166 247.462 24.99993 247.462 26.79647V28.29359H247.4444C247.145 27.69474 246.7399 27.2368 246.2467 26.95499 245.7359 26.65557 245.1371 26.51466 244.4501 26.51466 243.3053 26.51466 242.4599 26.88454 241.9315 27.6419 241.4031 28.38166 241.1389 29.57935 241.1389 31.19976 241.1389 32.83778 241.4207 34.05308 242.0019 34.84567 242.5655 35.62065 243.4462 36.02575 244.6263 36.02575 245.278 36.02575 245.8416 35.86724 246.3348 35.56781 246.8279 35.25078 247.1978 34.82806 247.462 34.28205H247.4796C247.4796 34.45819 247.4796 34.75761 247.5148 35.18032 247.5324 35.60304 247.5501 35.83201 247.5853 35.86724H249.0648C249.0296 35.5502 249.0119 34.91613 249.0119 33.94741V26.8317C249.0119 24.22496 247.7086 22.92158 245.1194 22.92158ZM247.462 31.21737C247.462 31.97473 247.3563 32.62642 247.145 33.17243 246.9336 33.71843 246.6518 34.14115 246.2819 34.42296 245.8944 34.70477 245.4717 34.86329 245.0138 34.86329 244.2036 34.86329 243.6223 34.56386 243.2701 34.00024 242.9178 33.43662 242.7417 32.50313 242.7417 31.21737 242.7417 29.94922 242.9002 29.03334 243.2348 28.46972 243.5695 27.9061 244.1507 27.6419 244.9785 27.6419 245.4717 27.6419 245.8944 27.78281 246.2819 28.06462 246.6518 28.34643 246.9336 28.76914 247.145 29.29754 247.3563 29.82593 247.462 30.47762 247.462 31.21737Z" fill="#262626"/>
<path transform="matrix(1,0,0,-1,0,552)" d="M251.3721 26.5675H252.92206V39.33702H251.3721Z" fill="#262626"/>
<path transform="matrix(1,0,0,-1,0,552)" d="M256.4799 30.90033C256.4799 29.82593 256.6913 28.99812 257.1316 28.41688 257.5719 27.83565 258.2236 27.55384 259.069 27.55384 259.7383 27.55384 260.2667 27.67713 260.6718 27.95894 261.0769 28.22314 261.3588 28.55779 261.4997 28.9805L262.8735 28.59301C262.3099 27.13112 261.0417 26.40898 259.069 26.40898 257.6952 26.40898 256.6384 26.81409 255.9163 27.62429 255.1942 28.43449 254.8419 29.66741 254.8419 31.28782 254.8419 32.80255 255.1942 33.98263 255.9163 34.81045 256.6384 35.62065 257.6776 36.04337 259.0162 36.04337 261.7462 36.04337 263.1201 34.38773 263.1201 31.09408V30.90033H256.4799ZM261.5173 32.08041C261.4292 33.04914 261.1826 33.75366 260.7599 34.2116 260.3372 34.66954 259.756 34.89851 258.981 34.89851 258.2236 34.89851 257.6248 34.63432 257.2021 34.14115 256.7617 33.64798 256.5328 32.96107 256.4975 32.08041H261.5173Z" fill="#262626"/>
<path transform="matrix(1,0,0,-1,0,552)" d="M277.8446 31.23498C277.8446 29.59696 277.4748 28.38166 276.7702 27.58906 276.0481 26.79647 275.0089 26.40898 273.6527 26.40898 272.2789 26.40898 271.2573 26.81409 270.5704 27.6419 269.8659 28.45211 269.5312 29.6498 269.5312 31.23498 269.5312 34.44057 270.9227 36.04337 273.7056 36.04337 275.1146 36.04337 276.1714 35.63827 276.8407 34.86329 277.51 34.08831 277.8446 32.873 277.8446 31.23498ZM276.2242 31.23498C276.2242 32.50313 276.0305 33.43662 275.643 34.01786 275.2555 34.59909 274.6214 34.89851 273.7232 34.89851 272.8073 34.89851 272.1556 34.59909 271.7505 34.00024 271.3454 33.4014 271.1517 32.48552 271.1517 31.23498 271.1517 30.00206 271.3454 29.06857 271.7505 28.45211 272.138 27.83565 272.7721 27.53623 273.6351 27.53623 274.551 27.53623 275.2203 27.83565 275.6254 28.43449 276.0129 29.03334 276.2242 29.96684 276.2242 31.23498Z" fill="#262626"/>
<path transform="matrix(1,0,0,-1,0,552)" d="M281.6843 34.74V26.5675H280.1344V34.74H278.831V35.86724H280.1344V36.92402C280.1344 37.76945 280.3105 38.3683 280.698 38.75579 281.0678 39.12567 281.6315 39.31941 282.4064 39.31941 282.8292 39.31941 283.199 39.28418 283.4985 39.21373V38.03365C283.2343 38.06888 283.0053 38.1041 282.8115 38.1041 282.4241 38.1041 282.1246 37.99843 281.9485 37.80468 281.7724 37.59332 281.6843 37.24106 281.6843 36.71267V35.86724H283.4985V34.74H281.6843Z" fill="#262626"/>
<path transform="matrix(1,0,0,-1,0,552)" d="M290.7375 31.27021C290.7375 30.01968 290.9312 29.10379 291.3187 28.50495 291.7062 27.9061 292.305 27.62429 293.0976 27.62429 293.626 27.62429 294.084 27.7652 294.4538 28.06462 294.8237 28.34643 295.0527 28.80437 295.1584 29.43844L296.7259 29.33276C296.585 28.43449 296.1975 27.72997 295.5635 27.20158 294.9294 26.67318 294.1192 26.40898 293.1328 26.40898 291.8295 26.40898 290.8255 26.81409 290.1386 27.62429 289.4517 28.43449 289.117 29.6498 289.117 31.23498 289.117 32.78494 289.4517 33.98263 290.1562 34.81045 290.8431 35.62065 291.8295 36.04337 293.1152 36.04337 294.0663 36.04337 294.8413 35.79678 295.4754 35.30362 296.1095 34.81045 296.497 34.12354 296.6731 33.26049L295.0703 33.15481C294.9998 33.64798 294.7885 34.05308 294.4714 34.37012 294.1368 34.66954 293.6788 34.82806 293.08 34.82806 292.2522 34.82806 291.6533 34.54625 291.2835 34.00024 290.9136 33.45424 290.7375 32.53835 290.7375 31.27021Z" fill="#262626"/>
<path transform="matrix(1,0,0,-1,0,552)" d="M306.237 31.23498C306.237 29.59696 305.8671 28.38166 305.1626 27.58906 304.4405 26.79647 303.4013 26.40898 302.0451 26.40898 300.6713 26.40898 299.6497 26.81409 298.9628 27.6419 298.2583 28.45211 297.9236 29.6498 297.9236 31.23498 297.9236 34.44057 299.3151 36.04337 302.0979 36.04337 303.507 36.04337 304.5638 35.63827 305.2331 34.86329 305.9024 34.08831 306.237 32.873 306.237 31.23498ZM304.6166 31.23498C304.6166 32.50313 304.4229 33.43662 304.0354 34.01786 303.6479 34.59909 303.0138 34.89851 302.1155 34.89851 301.1997 34.89851 300.548 34.59909 300.1429 34.00024 299.7378 33.4014 299.544 32.48552 299.544 31.23498 299.544 30.00206 299.7378 29.06857 300.1429 28.45211 300.5304 27.83565 301.1644 27.53623 302.0275 27.53623 302.9434 27.53623 303.6127 27.83565 304.0178 28.43449 304.4052 29.03334 304.6166 29.96684 304.6166 31.23498Z" fill="#262626"/>
<path transform="matrix(1,0,0,-1,0,552)" d="M312.2431 26.5675H310.4113L307.0296 35.86724H308.6852L310.7284 29.82593C310.7988 29.57935 311.0102 28.91005 311.3272 27.78281L311.6266 28.78676 311.9613 29.80832 314.0749 35.86724H315.7305L312.2431 26.5675Z" fill="#262626"/>
<path transform="matrix(1,0,0,-1,0,552)" d="M318.1611 30.90033C318.1611 29.82593 318.3725 28.99812 318.8128 28.41688 319.2531 27.83565 319.9048 27.55384 320.7502 27.55384 321.4195 27.55384 321.9479 27.67713 322.353 27.95894 322.7581 28.22314 323.0399 28.55779 323.1808 28.9805L324.5547 28.59301C323.991 27.13112 322.7229 26.40898 320.7502 26.40898 319.3764 26.40898 318.3196 26.81409 317.5975 27.62429 316.8753 28.43449 316.5231 29.66741 316.5231 31.28782 316.5231 32.80255 316.8753 33.98263 317.5975 34.81045 318.3196 35.62065 319.3588 36.04337 320.6974 36.04337 323.4274 36.04337 324.8013 34.38773 324.8013 31.09408V30.90033H318.1611ZM323.1985 32.08041C323.1104 33.04914 322.8638 33.75366 322.4411 34.2116 322.0184 34.66954 321.4371 34.89851 320.6622 34.89851 319.9048 34.89851 319.306 34.63432 318.8832 34.14115 318.4429 33.64798 318.2139 32.96107 318.1787 32.08041H323.1985Z" fill="#262626"/>
<path transform="matrix(1,0,0,-1,0,552)" d="M326.7915 26.5675V33.70082C326.7915 34.35251 326.7739 35.07465 326.7387 35.86724H328.2006C328.2358 34.81045 328.271 34.17638 328.271 33.96502H328.3063C328.5529 34.75761 328.8347 35.30362 329.1517 35.60304 329.4687 35.88485 329.9267 36.04337 330.5255 36.04337 330.7193 36.04337 330.9306 36.00814 331.142 35.9553V34.54625C330.9306 34.59909 330.6664 34.63432 330.3318 34.63432 329.6801 34.63432 329.1869 34.35251 328.8523 33.78889 328.5 33.22527 328.3415 32.43268 328.3415 31.41111V26.5675H326.7915Z" fill="#262626"/>
<path transform="matrix(1,0,0,-1,0,552)" d="M334.9993 26.40898C334.0658 26.40898 333.3612 26.63796 332.8857 27.13112 332.4101 27.62429 332.1812 28.29359 332.1812 29.15663 332.1812 30.10774 332.4982 30.84749 333.1323 31.37589 333.7663 31.88667 334.7879 32.16848 336.2146 32.20371L338.2929 32.23893V32.74971C338.2929 33.50708 338.1168 34.05308 337.7997 34.37012 337.4827 34.68716 336.9719 34.86329 336.3026 34.86329 335.5981 34.86329 335.1049 34.74 334.7879 34.51103 334.4709 34.26444 334.2771 33.89457 334.2243 33.38378L332.6039 33.5423C332.8505 35.19794 334.101 36.04337 336.3379 36.04337 337.5003 36.04337 338.3634 35.76156 338.9622 35.23316 339.5611 34.70477 339.8605 33.92979 339.8605 32.90823V28.91005C339.8605 28.45211 339.9133 28.09985 340.0366 27.87087 340.1599 27.62429 340.3889 27.51861 340.7235 27.51861 340.8644 27.51861 341.0406 27.53623 341.2343 27.58906V26.62034C340.8468 26.54989 340.4417 26.49705 340.0366 26.49705 339.4554 26.49705 339.0327 26.63796 338.7861 26.93738 338.5219 27.21919 338.381 27.69474 338.3458 28.34643H338.2929C337.8878 27.6419 337.4299 27.13112 336.9015 26.84931 336.3731 26.5675 335.739 26.40898 334.9993 26.40898ZM335.3515 27.55384C335.9151 27.55384 336.4259 27.67713 336.8662 27.94133 337.3066 28.18791 337.6588 28.54017 337.9054 28.99812 338.152 29.45606 338.2929 29.914 338.2929 30.38955V31.16453L336.6021 31.1293C335.8623 31.11169 335.3163 31.04124 334.9464 30.90033 334.5589 30.75943 334.2771 30.54807 334.0834 30.26626 333.872 29.98445 333.784 29.59696 333.784 29.13902 333.784 28.62824 333.9072 28.24075 334.1891 27.95894 334.4532 27.67713 334.8407 27.55384 335.3515 27.55384Z" fill="#262626"/>
<path transform="matrix(1,0,0,-1,0,552)" d="M345.9546 22.92158C344.9331 22.92158 344.1229 23.13294 343.524 23.52043 342.9252 23.92553 342.5377 24.48915 342.3615 25.2289L343.9115 25.45788C344.0172 25.03516 344.2462 24.70051 344.5984 24.45393 344.9507 24.22496 345.4086 24.10166 345.9899 24.10166 347.5222 24.10166 348.2972 24.99993 348.2972 26.79647V28.29359H348.2796C347.9801 27.69474 347.575 27.2368 347.0819 26.95499 346.5711 26.65557 345.9722 26.51466 345.2853 26.51466 344.1405 26.51466 343.295 26.88454 342.7666 27.6419 342.2383 28.38166 341.9741 29.57935 341.9741 31.19976 341.9741 32.83778 342.2559 34.05308 342.8371 34.84567 343.4007 35.62065 344.2814 36.02575 345.4615 36.02575 346.1131 36.02575 346.6768 35.86724 347.1699 35.56781 347.6631 35.25078 348.033 34.82806 348.2972 34.28205H348.3148C348.3148 34.45819 348.3148 34.75761 348.35 35.18032 348.3676 35.60304 348.3852 35.83201 348.4205 35.86724H349.9C349.8647 35.5502 349.8471 34.91613 349.8471 33.94741V26.8317C349.8471 24.22496 348.5438 22.92158 345.9546 22.92158ZM348.2972 31.21737C348.2972 31.97473 348.1915 32.62642 347.9801 33.17243 347.7688 33.71843 347.487 34.14115 347.1171 34.42296 346.7296 34.70477 346.3069 34.86329 345.8489 34.86329 345.0387 34.86329 344.4575 34.56386 344.1052 34.00024 343.753 33.43662 343.5769 32.50313 343.5769 31.21737 343.5769 29.94922 343.7354 29.03334 344.07 28.46972 344.4047 27.9061 344.9859 27.6419 345.8137 27.6419 346.3069 27.6419 346.7296 27.78281 347.1171 28.06462 347.487 28.34643 347.7688 28.76914 347.9801 29.29754 348.1915 29.82593 348.2972 30.47762 348.2972 31.21737Z" fill="#262626"/>
<path transform="matrix(1,0,0,-1,0,552)" d="M353.405 30.90033C353.405 29.82593 353.6163 28.99812 354.0567 28.41688 354.497 27.83565 355.1487 27.55384 355.9941 27.55384 356.6634 27.55384 357.1918 27.67713 357.5969 27.95894 358.002 28.22314 358.2838 28.55779 358.4247 28.9805L359.7985 28.59301C359.2349 27.13112 357.9668 26.40898 355.9941 26.40898 354.6203 26.40898 353.5635 26.81409 352.8414 27.62429 352.1192 28.43449 351.767 29.66741 351.767 31.28782 351.767 32.80255 352.1192 33.98263 352.8414 34.81045 353.5635 35.62065 354.6027 36.04337 355.9413 36.04337 358.6713 36.04337 360.0451 34.38773 360.0451 31.09408V30.90033H353.405ZM358.4423 32.08041C358.3543 33.04914 358.1077 33.75366 357.685 34.2116 357.2623 34.66954 356.681 34.89851 355.906 34.89851 355.1487 34.89851 354.5498 34.63432 354.1271 34.14115 353.6868 33.64798 353.4578 32.96107 353.4226 32.08041H358.4423Z" fill="#262626"/>
<path transform="matrix(1,0,0,-1,0,552)" d="M366.8086 31.14692C366.8086 32.80255 367.0552 34.28205 367.5836 35.60304 368.0943 36.90641 368.8869 38.15694 369.9789 39.33702H371.4761C370.4017 38.13933 369.6091 36.87119 369.1159 35.53259 368.6051 34.19399 368.3585 32.71449 368.3585 31.1293 368.3585 29.54412 368.6051 28.08223 369.0983 26.74363 369.5914 25.42265 370.384 24.1545 371.4761 22.9392H369.9789C368.8869 24.11928 368.0943 25.36981 367.5836 26.67318 367.0552 27.97655 366.8086 29.45606 366.8086 31.11169V31.14692Z" fill="#262626"/>
<path transform="matrix(1,0,0,-1,0,552)" d="M377.5702 36.41324C377.5702 35.72633 377.3236 35.1451 376.8304 34.66954 376.3373 34.19399 375.756 33.96502 375.0867 33.96502 374.4174 33.96502 373.8362 34.19399 373.3607 34.68716 372.8675 35.16271 372.6385 35.74394 372.6385 36.41324 372.6385 37.08254 372.8675 37.64616 373.343 38.13933 373.8186 38.61489 374.3998 38.86147 375.0867 38.86147 375.7737 38.86147 376.3549 38.61489 376.8481 38.13933 377.3236 37.66378 377.5702 37.08254 377.5702 36.41324ZM376.6367 36.41324C376.6367 36.83596 376.4782 37.20583 376.1788 37.50526 375.8793 37.80468 375.5095 37.9632 375.0867 37.9632 374.664 37.9632 374.2942 37.80468 374.0123 37.50526 373.7129 37.18822 373.572 36.83596 373.572 36.41324 373.572 35.99053 373.7129 35.62065 374.0123 35.32123 374.3118 35.00419 374.6816 34.86329 375.1044 34.86329 375.5271 34.86329 375.8793 35.00419 376.1788 35.30362 376.4782 35.60304 376.6367 35.97292 376.6367 36.41324Z" fill="#262626"/>
<path transform="matrix(1,0,0,-1,0,552)" d="M383.4001 31.11169C383.4001 29.45606 383.1359 27.95894 382.6252 26.65557 382.0968 25.3522 381.3042 24.10166 380.2298 22.9392H378.7327C379.8071 24.1545 380.5997 25.42265 381.0928 26.74363 381.586 28.06462 381.8502 29.52651 381.8502 31.1293 381.8502 32.71449 381.586 34.19399 381.0928 35.53259 380.582 36.87119 379.7895 38.13933 378.7327 39.33702H380.2298C381.3042 38.15694 382.0968 36.90641 382.6252 35.58543 383.1359 34.26444 383.4001 32.78494 383.4001 31.14692V31.11169Z" fill="#262626"/>
</g>
<g clip-path="url(#clip_12)">
<path transform="matrix(1.258081,0,0,-1.258081,2.763615,543.8909)" stroke-width=".7" stroke-linecap="round" stroke-linejoin="round" fill="none" stroke="#cccccc" stroke-opacity=".7" d="M56.1 91.50959H419.04"/>
</g>
<g clip-path="url(#clip_13)">
<path transform="matrix(1,0,0,-1,0,552)" d="M47.37548 122.9543C47.37548 121.2181 47.05844 119.8896 46.45456 118.9838 45.85068 118.078 44.94486 117.6251 43.7522 117.6251 42.54445 117.6251 41.65372 118.078 41.04985 118.9838 40.44597 119.8896 40.15912 121.2031 40.15912 122.9543 40.15912 124.7357 40.44597 126.0643 41.03475 126.955 41.60843 127.8457 42.52935 128.2986 43.79749 128.2986 45.00525 128.2986 45.91107 127.8457 46.49985 126.955 47.07354 126.0492 47.37548 124.7206 47.37548 122.9543ZM46.03185 122.9543C46.03185 124.4489 45.85068 125.5359 45.50345 126.2152 45.15622 126.8795 44.58254 127.2267 43.79749 127.2267 42.98226 127.2267 42.39348 126.8946 42.03115 126.2303 41.66882 125.5661 41.50275 124.464 41.50275 122.9543 41.50275 121.4748 41.68392 120.4029 42.04625 119.7235 42.40857 119.0291 42.98226 118.697 43.7673 118.697 44.53725 118.697 45.11093 119.0442 45.47326 119.7386 45.83559 120.4331 46.03185 121.505 46.03185 122.9543Z" fill="#262626"/>
<path transform="matrix(1,0,0,-1,0,552)" d="M49.33808 117.7609H50.78739V119.37628H49.33808Z" fill="#262626"/>
<path transform="matrix(1,0,0,-1,0,552)" d="M59.90596 120.6596C59.90596 119.6934 59.58893 118.9536 58.98505 118.4252 58.38117 117.8817 57.50554 117.6251 56.35817 117.6251 55.241 117.6251 54.38047 117.8817 53.7464 118.4101 53.11232 118.9234 52.81039 119.6783 52.81039 120.6445 52.81039 121.3087 53.00665 121.8824 53.39917 122.3504 53.79169 122.8033 54.28989 123.0902 54.89377 123.1959V123.226C54.32008 123.3468 53.88227 123.6337 53.55014 124.0866 53.218 124.5244 53.06703 125.0377 53.06703 125.6416 53.06703 126.4266 53.35388 127.0758 53.94266 127.5589 54.53144 128.042 55.33158 128.2986 56.32798 128.2986 57.35457 128.2986 58.15471 128.0571 58.75859 127.574 59.34737 127.0909 59.64931 126.4417 59.64931 125.6265 59.64931 125.0226 59.48325 124.5093 59.15111 124.0715 58.81898 123.6186 58.36607 123.3468 57.80748 123.2411V123.2109C58.45665 123.0902 58.96995 122.8184 59.34737 122.3655 59.7097 121.9126 59.90596 121.3389 59.90596 120.6596ZM58.26039 125.551C58.26039 126.7285 57.61122 127.3173 56.32798 127.3173 55.69391 127.3173 55.2259 127.1664 54.89377 126.8644 54.56163 126.5625 54.41066 126.1247 54.41066 125.551 54.41066 124.9471 54.57673 124.4942 54.90886 124.1923 55.241 123.8752 55.7241 123.7242 56.34308 123.7242 56.96205 123.7242 57.43006 123.8601 57.76219 124.147 58.09433 124.4338 58.26039 124.9018 58.26039 125.551ZM58.51704 120.7803C58.51704 121.4144 58.32078 121.8975 57.94336 122.2296 57.55083 122.5618 57.02244 122.7278 56.32798 122.7278 55.64862 122.7278 55.12022 122.5467 54.7428 122.1995 54.36537 121.8371 54.18421 121.354 54.18421 120.7501 54.18421 119.3159 54.90886 118.6064 56.37327 118.6064 57.09793 118.6064 57.62632 118.7724 57.98865 119.1197 58.33588 119.4669 58.51704 120.0255 58.51704 120.7803Z" fill="#262626"/>
<path transform="matrix(1,0,0,-1,0,552)" d="M67.04683 120.1161V117.7609H65.79378V120.1161H60.90236V121.1427L65.65791 128.1477H67.04683V121.1578H68.51123V120.1161H67.04683ZM65.79378 126.6531C65.77868 126.6229 65.7032 126.487 65.58242 126.2605 65.46165 126.019 65.35597 125.868 65.29558 125.7774L62.63851 121.8522 62.24599 121.3087 62.12522 121.1578H65.79378V126.6531Z" fill="#262626"/>
</g>
<g clip-path="url(#clip_14)">
<path transform="matrix(1.258081,0,0,-1.258081,2.763615,543.8909)" stroke-width=".7" stroke-linecap="round" stroke-linejoin="round" fill="none" stroke="#cccccc" stroke-opacity=".7" d="M56.1 154.3685H419.04"/>
</g>
<g clip-path="url(#clip_15)">
<path transform="matrix(1,0,0,-1,0,552)" d="M47.37548 202.0358C47.37548 200.2997 47.05844 198.9712 46.45456 198.0653 45.85068 197.1595 44.94486 196.7066 43.7522 196.7066 42.54445 196.7066 41.65372 197.1595 41.04985 198.0653 40.44597 198.9712 40.15912 200.2846 40.15912 202.0358 40.15912 203.8173 40.44597 205.1458 41.03475 206.0365 41.60843 206.9273 42.52935 207.3802 43.79749 207.3802 45.00525 207.3802 45.91107 206.9273 46.49985 206.0365 47.07354 205.1307 47.37548 203.8022 47.37548 202.0358ZM46.03185 202.0358C46.03185 203.5304 45.85068 204.6174 45.50345 205.2968 45.15622 205.9611 44.58254 206.3083 43.79749 206.3083 42.98226 206.3083 42.39348 205.9762 42.03115 205.3119 41.66882 204.6476 41.50275 203.5455 41.50275 202.0358 41.50275 200.5563 41.68392 199.4845 42.04625 198.8051 42.40857 198.1106 42.98226 197.7785 43.7673 197.7785 44.53725 197.7785 45.11093 198.1257 45.47326 198.8202 45.83559 199.5147 46.03185 200.5865 46.03185 202.0358Z" fill="#262626"/>
<path transform="matrix(1,0,0,-1,0,552)" d="M49.33808 196.8425H50.78739V198.45787H49.33808Z" fill="#262626"/>
<path transform="matrix(1,0,0,-1,0,552)" d="M59.90596 199.7411C59.90596 198.7749 59.58893 198.0351 58.98505 197.5068 58.38117 196.9633 57.50554 196.7066 56.35817 196.7066 55.241 196.7066 54.38047 196.9633 53.7464 197.4917 53.11232 198.005 52.81039 198.7598 52.81039 199.726 52.81039 200.3903 53.00665 200.964 53.39917 201.432 53.79169 201.8849 54.28989 202.1717 54.89377 202.2774V202.3076C54.32008 202.4284 53.88227 202.7152 53.55014 203.1681 53.218 203.6059 53.06703 204.1192 53.06703 204.7231 53.06703 205.5081 53.35388 206.1573 53.94266 206.6404 54.53144 207.1235 55.33158 207.3802 56.32798 207.3802 57.35457 207.3802 58.15471 207.1386 58.75859 206.6555 59.34737 206.1724 59.64931 205.5232 59.64931 204.708 59.64931 204.1041 59.48325 203.5908 59.15111 203.153 58.81898 202.7001 58.36607 202.4284 57.80748 202.3227V202.2925C58.45665 202.1717 58.96995 201.9 59.34737 201.4471 59.7097 200.9942 59.90596 200.4205 59.90596 199.7411ZM58.26039 204.6325C58.26039 205.8101 57.61122 206.3989 56.32798 206.3989 55.69391 206.3989 55.2259 206.2479 54.89377 205.946 54.56163 205.644 54.41066 205.2062 54.41066 204.6325 54.41066 204.0286 54.57673 203.5757 54.90886 203.2738 55.241 202.9568 55.7241 202.8058 56.34308 202.8058 56.96205 202.8058 57.43006 202.9417 57.76219 203.2285 58.09433 203.5153 58.26039 203.9834 58.26039 204.6325ZM58.51704 199.8619C58.51704 200.496 58.32078 200.9791 57.94336 201.3112 57.55083 201.6433 57.02244 201.8094 56.32798 201.8094 55.64862 201.8094 55.12022 201.6282 54.7428 201.281 54.36537 200.9187 54.18421 200.4356 54.18421 199.8317 54.18421 198.3975 54.90886 197.6879 56.37327 197.6879 57.09793 197.6879 57.62632 197.854 57.98865 198.2012 58.33588 198.5484 58.51704 199.107 58.51704 199.8619Z" fill="#262626"/>
<path transform="matrix(1,0,0,-1,0,552)" d="M68.28478 200.2393C68.28478 199.1372 67.98284 198.2767 67.39406 197.6426 66.79018 197.0086 65.97494 196.7066 64.93325 196.7066 63.75569 196.7066 62.86497 197.1293 62.24599 198.005 61.62702 198.8655 61.32508 200.1336 61.32508 201.7943 61.32508 203.5908 61.64211 204.9647 62.29128 205.9309 62.92536 206.8971 63.84627 207.3802 65.03893 207.3802 66.60902 207.3802 67.59032 206.6706 67.99794 205.2666L66.72979 205.0401C66.45805 205.8856 65.89946 206.3083 65.02383 206.3083 64.26899 206.3083 63.6802 205.946 63.25749 205.2515 62.83477 204.5419 62.63851 203.5153 62.63851 202.1868 62.88006 202.6246 63.2122 202.9568 63.65001 203.1983 64.08782 203.4399 64.58602 203.5606 65.15971 203.5606 66.11082 203.5606 66.86566 203.2587 67.43935 202.6548 67.99794 202.0509 68.28478 201.2508 68.28478 200.2393ZM66.94115 200.1789C66.94115 200.9338 66.74489 201.5075 66.38256 201.9151 66.02023 202.3227 65.50694 202.534 64.84267 202.534 64.22369 202.534 63.72549 202.3529 63.34807 201.9906 62.95555 201.6282 62.77439 201.13 62.77439 200.496 62.77439 199.6958 62.97065 199.0466 63.36317 198.5333 63.75569 198.0201 64.26899 197.7634 64.88796 197.7634 65.52203 197.7634 66.03533 197.9748 66.39766 198.3975 66.75999 198.8202 66.94115 199.4241 66.94115 200.1789Z" fill="#262626"/>
</g>
<g clip-path="url(#clip_16)">
<path transform="matrix(1.258081,0,0,-1.258081,2.763615,543.8909)" stroke-width=".7" stroke-linecap="round" stroke-linejoin="round" fill="none" stroke="#cccccc" stroke-opacity=".7" d="M56.1 217.2273H419.04"/>
</g>
<g clip-path="url(#clip_17)">
<path transform="matrix(1,0,0,-1,0,552)" d="M47.37548 281.1174C47.37548 279.3812 47.05844 278.0527 46.45456 277.1469 45.85068 276.2411 44.94486 275.7882 43.7522 275.7882 42.54445 275.7882 41.65372 276.2411 41.04985 277.1469 40.44597 278.0527 40.15912 279.3661 40.15912 281.1174 40.15912 282.8988 40.44597 284.2274 41.03475 285.1181 41.60843 286.0088 42.52935 286.4617 43.79749 286.4617 45.00525 286.4617 45.91107 286.0088 46.49985 285.1181 47.07354 284.2123 47.37548 282.8837 47.37548 281.1174ZM46.03185 281.1174C46.03185 282.612 45.85068 283.699 45.50345 284.3783 45.15622 285.0426 44.58254 285.3898 43.79749 285.3898 42.98226 285.3898 42.39348 285.0577 42.03115 284.3934 41.66882 283.7292 41.50275 282.6271 41.50275 281.1174 41.50275 279.6379 41.68392 278.566 42.04625 277.8866 42.40857 277.1922 42.98226 276.86 43.7673 276.86 44.53725 276.86 45.11093 277.2073 45.47326 277.9017 45.83559 278.5962 46.03185 279.6681 46.03185 281.1174Z" fill="#262626"/>
<path transform="matrix(1,0,0,-1,0,552)" d="M49.33808 275.924H50.78739V277.5394H49.33808Z" fill="#262626"/>
<path transform="matrix(1,0,0,-1,0,552)" d="M59.90596 278.8226C59.90596 277.8564 59.58893 277.1167 58.98505 276.5883 58.38117 276.0448 57.50554 275.7882 56.35817 275.7882 55.241 275.7882 54.38047 276.0448 53.7464 276.5732 53.11232 277.0865 52.81039 277.8413 52.81039 278.8076 52.81039 279.4718 53.00665 280.0455 53.39917 280.5135 53.79169 280.9664 54.28989 281.2533 54.89377 281.3589V281.3891C54.32008 281.5099 53.88227 281.7968 53.55014 282.2497 53.218 282.6875 53.06703 283.2008 53.06703 283.8046 53.06703 284.5897 53.35388 285.2389 53.94266 285.722 54.53144 286.2051 55.33158 286.4617 56.32798 286.4617 57.35457 286.4617 58.15471 286.2202 58.75859 285.7371 59.34737 285.254 59.64931 284.6048 59.64931 283.7896 59.64931 283.1857 59.48325 282.6724 59.15111 282.2346 58.81898 281.7817 58.36607 281.5099 57.80748 281.4042V281.374C58.45665 281.2533 58.96995 280.9815 59.34737 280.5286 59.7097 280.0757 59.90596 279.502 59.90596 278.8226ZM58.26039 283.7141C58.26039 284.8916 57.61122 285.4804 56.32798 285.4804 55.69391 285.4804 55.2259 285.3294 54.89377 285.0275 54.56163 284.7256 54.41066 284.2878 54.41066 283.7141 54.41066 283.1102 54.57673 282.6573 54.90886 282.3553 55.241 282.0383 55.7241 281.8873 56.34308 281.8873 56.96205 281.8873 57.43006 282.0232 57.76219 282.31 58.09433 282.5969 58.26039 283.0649 58.26039 283.7141ZM58.51704 278.9434C58.51704 279.5775 58.32078 280.0606 57.94336 280.3927 57.55083 280.7249 57.02244 280.8909 56.32798 280.8909 55.64862 280.8909 55.12022 280.7098 54.7428 280.3625 54.36537 280.0002 54.18421 279.5171 54.18421 278.9132 54.18421 277.479 54.90886 276.7695 56.37327 276.7695 57.09793 276.7695 57.62632 276.9355 57.98865 277.2828 58.33588 277.63 58.51704 278.1886 58.51704 278.9434Z" fill="#262626"/>
<path transform="matrix(1,0,0,-1,0,552)" d="M68.29988 278.8226C68.29988 277.8564 67.98284 277.1167 67.37896 276.5883 66.77508 276.0448 65.89946 275.7882 64.75209 275.7882 63.63491 275.7882 62.77439 276.0448 62.14031 276.5732 61.50624 277.0865 61.2043 277.8413 61.2043 278.8076 61.2043 279.4718 61.40056 280.0455 61.79308 280.5135 62.1856 280.9664 62.6838 281.2533 63.28768 281.3589V281.3891C62.714 281.5099 62.27619 281.7968 61.94405 282.2497 61.61192 282.6875 61.46095 283.2008 61.46095 283.8046 61.46095 284.5897 61.74779 285.2389 62.33657 285.722 62.92536 286.2051 63.72549 286.4617 64.7219 286.4617 65.74849 286.4617 66.54863 286.2202 67.15251 285.7371 67.74129 285.254 68.04323 284.6048 68.04323 283.7896 68.04323 283.1857 67.87716 282.6724 67.54503 282.2346 67.2129 281.7817 66.75999 281.5099 66.2014 281.4042V281.374C66.85057 281.2533 67.36386 280.9815 67.74129 280.5286 68.10362 280.0757 68.29988 279.502 68.29988 278.8226ZM66.65431 283.7141C66.65431 284.8916 66.00514 285.4804 64.7219 285.4804 64.08782 285.4804 63.61982 285.3294 63.28768 285.0275 62.95555 284.7256 62.80458 284.2878 62.80458 283.7141 62.80458 283.1102 62.97065 282.6573 63.30278 282.3553 63.63491 282.0383 64.11802 281.8873 64.73699 281.8873 65.35597 281.8873 65.82397 282.0232 66.15611 282.31 66.48824 282.5969 66.65431 283.0649 66.65431 283.7141ZM66.91096 278.9434C66.91096 279.5775 66.7147 280.0606 66.33727 280.3927 65.94475 280.7249 65.41636 280.8909 64.7219 280.8909 64.04253 280.8909 63.51414 280.7098 63.13671 280.3625 62.75929 280.0002 62.57813 279.5171 62.57813 278.9132 62.57813 277.479 63.30278 276.7695 64.76719 276.7695 65.49184 276.7695 66.02023 276.9355 66.38256 277.2828 66.72979 277.63 66.91096 278.1886 66.91096 278.9434Z" fill="#262626"/>
</g>
<g clip-path="url(#clip_18)">
<path transform="matrix(1.258081,0,0,-1.258081,2.763615,543.8909)" stroke-width=".7" stroke-linecap="round" stroke-linejoin="round" fill="none" stroke="#cccccc" stroke-opacity=".7" d="M56.1 280.0862H419.04"/>
</g>
<g clip-path="url(#clip_19)">
<path transform="matrix(1,0,0,-1,0,552)" d="M47.37548 360.1989C47.37548 358.4628 47.05844 357.1342 46.45456 356.2284 45.85068 355.3226 44.94486 354.8697 43.7522 354.8697 42.54445 354.8697 41.65372 355.3226 41.04985 356.2284 40.44597 357.1342 40.15912 358.4477 40.15912 360.1989 40.15912 361.9804 40.44597 363.3089 41.03475 364.1996 41.60843 365.0904 42.52935 365.5433 43.79749 365.5433 45.00525 365.5433 45.91107 365.0904 46.49985 364.1996 47.07354 363.2938 47.37548 361.9653 47.37548 360.1989ZM46.03185 360.1989C46.03185 361.6935 45.85068 362.7805 45.50345 363.4599 45.15622 364.1241 44.58254 364.4714 43.79749 364.4714 42.98226 364.4714 42.39348 364.1392 42.03115 363.475 41.66882 362.8107 41.50275 361.7086 41.50275 360.1989 41.50275 358.7194 41.68392 357.6475 42.04625 356.9682 42.40857 356.2737 42.98226 355.9416 43.7673 355.9416 44.53725 355.9416 45.11093 356.2888 45.47326 356.9833 45.83559 357.6777 46.03185 358.7496 46.03185 360.1989Z" fill="#262626"/>
<path transform="matrix(1,0,0,-1,0,552)" d="M49.33808 355.0056H50.78739V356.621H49.33808Z" fill="#262626"/>
<path transform="matrix(1,0,0,-1,0,552)" d="M59.84557 360.4103C59.84557 358.6288 59.51344 357.255 58.86427 356.3039 58.2 355.3377 57.27909 354.8697 56.08643 354.8697 55.27119 354.8697 54.60692 355.0358 54.12382 355.3679 53.64072 355.7 53.29349 356.2586 53.08213 357.0286L54.35028 357.2248C54.60692 356.3492 55.19571 355.9265 56.10153 355.9265 56.85637 355.9265 57.44516 356.2737 57.86787 356.9833 58.29059 357.6928 58.50194 358.7043 58.53214 360.0178 58.32078 359.5649 57.98865 359.2176 57.52064 358.9459 57.03754 358.6741 56.52424 358.5534 55.95056 358.5534 55.01454 358.5534 54.25969 358.8704 53.70111 359.5045 53.14252 360.1385 52.87077 360.9991 52.87077 362.0559 52.87077 363.1428 53.17271 363.9883 53.77659 364.6072 54.38047 365.2262 55.241 365.5433 56.32798 365.5433 57.47535 365.5433 58.35097 365.1054 58.95485 364.26 59.54363 363.3995 59.84557 362.1162 59.84557 360.4103ZM58.39626 361.6935C58.39626 362.5239 58.2 363.1881 57.82258 363.7014 57.43006 364.2147 56.91676 364.4714 56.28269 364.4714 55.63352 364.4714 55.12022 364.2449 54.75789 363.8222 54.39557 363.3844 54.2144 362.7956 54.2144 362.0559 54.2144 361.301 54.39557 360.6971 54.75789 360.2593 55.12022 359.8064 55.63352 359.5951 56.26759 359.5951 56.64502 359.5951 56.99225 359.6705 57.32438 359.8517 57.65651 360.0329 57.91316 360.2744 58.10942 360.5915 58.29059 360.9085 58.39626 361.2708 58.39626 361.6935Z" fill="#262626"/>
<path transform="matrix(1,0,0,-1,0,552)" d="M68.36026 360.1989C68.36026 358.4628 68.04323 357.1342 67.43935 356.2284 66.83547 355.3226 65.92965 354.8697 64.73699 354.8697 63.52923 354.8697 62.63851 355.3226 62.03463 356.2284 61.43076 357.1342 61.14391 358.4477 61.14391 360.1989 61.14391 361.9804 61.43076 363.3089 62.01954 364.1996 62.59322 365.0904 63.51414 365.5433 64.78228 365.5433 65.99004 365.5433 66.89586 365.0904 67.48464 364.1996 68.05833 363.2938 68.36026 361.9653 68.36026 360.1989ZM67.01663 360.1989C67.01663 361.6935 66.83547 362.7805 66.48824 363.4599 66.14101 364.1241 65.56733 364.4714 64.78228 364.4714 63.96705 364.4714 63.37826 364.1392 63.01594 363.475 62.65361 362.8107 62.48754 361.7086 62.48754 360.1989 62.48754 358.7194 62.66871 357.6475 63.03103 356.9682 63.39336 356.2737 63.96705 355.9416 64.75209 355.9416 65.52203 355.9416 66.09572 356.2888 66.45805 356.9833 66.82037 357.6777 67.01663 358.7496 67.01663 360.1989Z" fill="#262626"/>
</g>
<g clip-path="url(#clip_20)">
<path transform="matrix(1.258081,0,0,-1.258081,2.763615,543.8909)" stroke-width=".7" stroke-linecap="round" stroke-linejoin="round" fill="none" stroke="#cccccc" stroke-opacity=".7" d="M56.1 342.9451H419.04"/>
</g>
<g clip-path="url(#clip_21)">
<path transform="matrix(1,0,0,-1,0,552)" d="M47.37548 439.2805C47.37548 437.5443 47.05844 436.2158 46.45456 435.31 45.85068 434.4042 44.94486 433.9512 43.7522 433.9512 42.54445 433.9512 41.65372 434.4042 41.04985 435.31 40.44597 436.2158 40.15912 437.5292 40.15912 439.2805 40.15912 441.0619 40.44597 442.3905 41.03475 443.2812 41.60843 444.1719 42.52935 444.6248 43.79749 444.6248 45.00525 444.6248 45.91107 444.1719 46.49985 443.2812 47.07354 442.3754 47.37548 441.0468 47.37548 439.2805ZM46.03185 439.2805C46.03185 440.7751 45.85068 441.8621 45.50345 442.5414 45.15622 443.2057 44.58254 443.5529 43.79749 443.5529 42.98226 443.5529 42.39348 443.2208 42.03115 442.5565 41.66882 441.8923 41.50275 440.7902 41.50275 439.2805 41.50275 437.801 41.68392 436.7291 42.04625 436.0497 42.40857 435.3553 42.98226 435.0231 43.7673 435.0231 44.53725 435.0231 45.11093 435.3704 45.47326 436.0648 45.83559 436.7593 46.03185 437.8312 46.03185 439.2805Z" fill="#262626"/>
<path transform="matrix(1,0,0,-1,0,552)" d="M49.33808 434.0871H50.78739V435.70249H49.33808Z" fill="#262626"/>
<path transform="matrix(1,0,0,-1,0,552)" d="M59.84557 439.4918C59.84557 437.7104 59.51344 436.3366 58.86427 435.3855 58.2 434.4193 57.27909 433.9512 56.08643 433.9512 55.27119 433.9512 54.60692 434.1173 54.12382 434.4494 53.64072 434.7816 53.29349 435.3402 53.08213 436.1101L54.35028 436.3064C54.60692 435.4308 55.19571 435.008 56.10153 435.008 56.85637 435.008 57.44516 435.3553 57.86787 436.0648 58.29059 436.7744 58.50194 437.7859 58.53214 439.0993 58.32078 438.6464 57.98865 438.2992 57.52064 438.0274 57.03754 437.7557 56.52424 437.6349 55.95056 437.6349 55.01454 437.6349 54.25969 437.9519 53.70111 438.586 53.14252 439.2201 52.87077 440.0806 52.87077 441.1374 52.87077 442.2244 53.17271 443.0698 53.77659 443.6888 54.38047 444.3078 55.241 444.6248 56.32798 444.6248 57.47535 444.6248 58.35097 444.187 58.95485 443.3416 59.54363 442.481 59.84557 441.1978 59.84557 439.4918ZM58.39626 440.7751C58.39626 441.6054 58.2 442.2697 57.82258 442.783 57.43006 443.2963 56.91676 443.5529 56.28269 443.5529 55.63352 443.5529 55.12022 443.3265 54.75789 442.9038 54.39557 442.4659 54.2144 441.8772 54.2144 441.1374 54.2144 440.3826 54.39557 439.7787 54.75789 439.3409 55.12022 438.888 55.63352 438.6766 56.26759 438.6766 56.64502 438.6766 56.99225 438.7521 57.32438 438.9332 57.65651 439.1144 57.91316 439.356 58.10942 439.673 58.29059 439.99 58.39626 440.3524 58.39626 440.7751Z" fill="#262626"/>
<path transform="matrix(1,0,0,-1,0,552)" d="M61.30998 434.0871V435.0231C61.55153 435.5968 61.86857 436.095 62.23089 436.5479 62.59322 436.9857 62.97065 437.3783 63.36317 437.7406 63.75569 438.0878 64.16331 438.42 64.55583 438.7219 64.94835 439.0238 65.29558 439.3409 65.61262 439.6428 65.91456 439.9447 66.1712 440.2618 66.36746 440.5939 66.56373 440.926 66.6694 441.3186 66.6694 441.7413 66.6694 442.2999 66.48824 442.7377 66.15611 443.0547 65.82397 443.3718 65.35597 443.5378 64.76719 443.5378 64.1935 443.5378 63.72549 443.3718 63.36317 443.0698 63.00084 442.7679 62.78948 442.3301 62.72909 441.7866L61.37037 441.9074C61.46095 442.7377 61.82328 443.402 62.42716 443.8851 63.03103 444.3682 63.81608 444.6248 64.76719 444.6248 65.80888 444.6248 66.60902 444.3682 67.1827 443.8851 67.74129 443.3869 68.02813 442.6924 68.02813 441.7866 68.02813 441.379 67.92245 440.9713 67.74129 440.5788 67.56013 440.1863 67.28838 439.7787 66.92605 439.3862 66.56373 438.9936 65.86926 438.3747 64.84267 437.5443 64.26899 437.0763 63.83117 436.6536 63.49904 436.2913 63.16691 435.9139 62.92536 435.5515 62.77439 435.2194H68.1942V434.0871H61.30998Z" fill="#262626"/>
</g>
<g clip-path="url(#clip_22)">
<path transform="matrix(1.258081,0,0,-1.258081,2.763615,543.8909)" stroke-width=".7" stroke-linecap="round" stroke-linejoin="round" fill="none" stroke="#cccccc" stroke-opacity=".7" d="M56.1 405.804H419.04"/>
</g>
<g clip-path="url(#clip_23)">
<path transform="matrix(1,0,0,-1,0,552)" d="M47.37548 518.362C47.37548 516.6259 47.05844 515.2973 46.45456 514.3915 45.85068 513.4857 44.94486 513.0328 43.7522 513.0328 42.54445 513.0328 41.65372 513.4857 41.04985 514.3915 40.44597 515.2973 40.15912 516.6108 40.15912 518.362 40.15912 520.1435 40.44597 521.472 41.03475 522.3627 41.60843 523.2534 42.52935 523.7063 43.79749 523.7063 45.00525 523.7063 45.91107 523.2534 46.49985 522.3627 47.07354 521.4569 47.37548 520.1284 47.37548 518.362ZM46.03185 518.362C46.03185 519.8566 45.85068 520.9436 45.50345 521.623 45.15622 522.2872 44.58254 522.6345 43.79749 522.6345 42.98226 522.6345 42.39348 522.3023 42.03115 521.6381 41.66882 520.9738 41.50275 519.8717 41.50275 518.362 41.50275 516.8825 41.68392 515.8106 42.04625 515.1313 42.40857 514.4368 42.98226 514.1047 43.7673 514.1047 44.53725 514.1047 45.11093 514.4519 45.47326 515.1464 45.83559 515.8408 46.03185 516.9127 46.03185 518.362Z" fill="#262626"/>
<path transform="matrix(1,0,0,-1,0,552)" d="M49.33808 513.1687H50.78739V514.78408H49.33808Z" fill="#262626"/>
<path transform="matrix(1,0,0,-1,0,552)" d="M59.84557 518.5734C59.84557 516.7919 59.51344 515.4181 58.86427 514.467 58.2 513.5008 57.27909 513.0328 56.08643 513.0328 55.27119 513.0328 54.60692 513.1989 54.12382 513.531 53.64072 513.8631 53.29349 514.4217 53.08213 515.1917L54.35028 515.3879C54.60692 514.5123 55.19571 514.0896 56.10153 514.0896 56.85637 514.0896 57.44516 514.4368 57.86787 515.1464 58.29059 515.8559 58.50194 516.8674 58.53214 518.1809 58.32078 517.7279 57.98865 517.3807 57.52064 517.109 57.03754 516.8372 56.52424 516.7165 55.95056 516.7165 55.01454 516.7165 54.25969 517.0335 53.70111 517.6676 53.14252 518.3016 52.87077 519.1622 52.87077 520.2189 52.87077 521.3059 53.17271 522.1514 53.77659 522.7703 54.38047 523.3893 55.241 523.7063 56.32798 523.7063 57.47535 523.7063 58.35097 523.2685 58.95485 522.4231 59.54363 521.5626 59.84557 520.2793 59.84557 518.5734ZM58.39626 519.8566C58.39626 520.687 58.2 521.3512 57.82258 521.8645 57.43006 522.3778 56.91676 522.6345 56.28269 522.6345 55.63352 522.6345 55.12022 522.408 54.75789 521.9853 54.39557 521.5475 54.2144 520.9587 54.2144 520.2189 54.2144 519.4641 54.39557 518.8602 54.75789 518.4224 55.12022 517.9695 55.63352 517.7581 56.26759 517.7581 56.64502 517.7581 56.99225 517.8336 57.32438 518.0148 57.65651 518.196 57.91316 518.4375 58.10942 518.7545 58.29059 519.0716 58.39626 519.4339 58.39626 519.8566Z" fill="#262626"/>
<path transform="matrix(1,0,0,-1,0,552)" d="M67.04683 515.5238V513.1687H65.79378V515.5238H60.90236V516.5504L65.65791 523.5554H67.04683V516.5655H68.51123V515.5238H67.04683ZM65.79378 522.0608C65.77868 522.0306 65.7032 521.8947 65.58242 521.6683 65.46165 521.4267 65.35597 521.2757 65.29558 521.1852L62.63851 517.2599 62.24599 516.7165 62.12522 516.5655H65.79378V522.0608Z" fill="#262626"/>
<path transform="matrix(1,0,0,-1,0,552)" d="M19.92635 286.3029C19.92635 284.9466 20.36668 283.9075 21.22973 283.1677 22.09277 282.428 23.27285 282.0581 24.76997 282.0581 26.24947 282.0581 27.44716 282.4456 28.34543 283.2206 29.26131 283.9955 29.70164 285.0347 29.70164 286.3733 29.70164 288.0642 28.87382 289.3323 27.18296 290.1954L27.85226 291.534C28.90905 291.0408 29.70164 290.3363 30.23004 289.438 30.77604 288.5221 31.04024 287.4829 31.04024 286.2852 31.04024 285.0523 30.79366 283.9955 30.28288 283.1149 29.78971 282.2166 29.06757 281.5297 28.11646 281.0718 27.18296 280.6138 26.07334 280.3848 24.76997 280.3848 22.83252 280.3848 21.31779 280.8956 20.22578 281.9524 19.13376 282.9916 18.58776 284.4359 18.58776 286.2852 18.58776 287.571 18.85195 288.6454 19.34512 289.5084 19.8559 290.3715 20.59565 291.0056 21.58199 291.4283L22.09277 289.8607C21.38824 289.5789 20.85985 289.121 20.48997 288.5045 20.1201 287.8704 19.92635 287.1483 19.92635 286.3029Z" fill="#262626"/>
<path transform="matrix(1,0,0,-1,0,552)" d="M30.88172 293.6475H18.76389V295.2856H29.54312V301.4149H30.88172V293.6475Z" fill="#262626"/>
<path transform="matrix(1,0,0,-1,0,552)" d="M18.76389 303.6166H30.88172V305.27226H18.76389Z" fill="#262626"/>
<path transform="matrix(1,0,0,-1,0,552)" d="M22.40981 317.7071C23.57227 317.7071 24.48815 317.3196 25.15745 316.5798 25.82675 315.8401 26.1614 314.8185 26.1614 313.5328V309.9749H30.88172V308.3369H18.76389V313.4447C18.76389 314.7833 19.08092 315.8401 19.715 316.5798 20.34907 317.3196 21.24734 317.7071 22.40981 317.7071ZM22.42742 316.069C20.87746 316.069 20.08487 315.1179 20.08487 313.2333V309.9749H24.85803V313.3038C24.85803 315.1356 24.04783 316.069 22.42742 316.069Z" fill="#262626"/>
</g>
<g clip-path="url(#clip_24)">
<path transform="matrix(1.258081,0,0,-1.258081,2.763615,543.8909)" stroke-width="2" stroke-linecap="butt" stroke-dasharray="2,3.3" stroke-linejoin="round" fill="none" stroke="#3ba3ec" d="M72.59727 62.62462 145.9185 66.37733 237.57 60.57 329.2215 205.9752 402.5427 239.1127"/>
</g>
<g clip-path="url(#clip_25)">
<path transform="matrix(1.258081,0,0,-1.258081,94.09685,465.10408)" d="M0-3C.795609-3 1.55874-2.683901 2.12132-2.12132 2.683901-1.55874 3-.795609 3 0 3 .795609 2.683901 1.55874 2.12132 2.12132 1.55874 2.683901 .795609 3 0 3-.795609 3-1.55874 2.683901-2.12132 2.12132-2.683901 1.55874-3 .795609-3 0-3-.795609-2.683901-1.55874-2.12132-2.12132-1.55874-2.683901-.795609-3 0-3Z" fill="#3ba3ec"/>
<path transform="matrix(1.258081,0,0,-1.258081,94.09685,465.10408)" stroke-width="1" stroke-linecap="butt" stroke-linejoin="round" fill="none" stroke="#3ba3ec" d="M0-3C.795609-3 1.55874-2.683901 2.12132-2.12132 2.683901-1.55874 3-.795609 3 0 3 .795609 2.683901 1.55874 2.12132 2.12132 1.55874 2.683901 .795609 3 0 3-.795609 3-1.55874 2.683901-2.12132 2.12132-2.683901 1.55874-3 .795609-3 0-3-.795609-2.683901-1.55874-2.12132-2.12132-1.55874-2.683901-.795609-3 0-3Z"/>
</g>
<g clip-path="url(#clip_26)">
<path transform="matrix(1.258081,0,0,-1.258081,186.3409,460.38288)" d="M0-3C.795609-3 1.55874-2.683901 2.12132-2.12132 2.683901-1.55874 3-.795609 3 0 3 .795609 2.683901 1.55874 2.12132 2.12132 1.55874 2.683901 .795609 3 0 3-.795609 3-1.55874 2.683901-2.12132 2.12132-2.683901 1.55874-3 .795609-3 0-3-.795609-2.683901-1.55874-2.12132-2.12132-1.55874-2.683901-.795609-3 0-3Z" fill="#3ba3ec"/>
<path transform="matrix(1.258081,0,0,-1.258081,186.3409,460.38288)" stroke-width="1" stroke-linecap="butt" stroke-linejoin="round" fill="none" stroke="#3ba3ec" d="M0-3C.795609-3 1.55874-2.683901 2.12132-2.12132 2.683901-1.55874 3-.795609 3 0 3 .795609 2.683901 1.55874 2.12132 2.12132 1.55874 2.683901 .795609 3 0 3-.795609 3-1.55874 2.683901-2.12132 2.12132-2.683901 1.55874-3 .795609-3 0-3-.795609-2.683901-1.55874-2.12132-2.12132-1.55874-2.683901-.795609-3 0-3Z"/>
</g>
<g clip-path="url(#clip_27)">
<path transform="matrix(1.258081,0,0,-1.258081,301.6459,467.68894)" d="M0-3C.795609-3 1.55874-2.683901 2.12132-2.12132 2.683901-1.55874 3-.795609 3 0 3 .795609 2.683901 1.55874 2.12132 2.12132 1.55874 2.683901 .795609 3 0 3-.795609 3-1.55874 2.683901-2.12132 2.12132-2.683901 1.55874-3 .795609-3 0-3-.795609-2.683901-1.55874-2.12132-2.12132-1.55874-2.683901-.795609-3 0-3Z" fill="#3ba3ec"/>
<path transform="matrix(1.258081,0,0,-1.258081,301.6459,467.68894)" stroke-width="1" stroke-linecap="butt" stroke-linejoin="round" fill="none" stroke="#3ba3ec" d="M0-3C.795609-3 1.55874-2.683901 2.12132-2.12132 2.683901-1.55874 3-.795609 3 0 3 .795609 2.683901 1.55874 2.12132 2.12132 1.55874 2.683901 .795609 3 0 3-.795609 3-1.55874 2.683901-2.12132 2.12132-2.683901 1.55874-3 .795609-3 0-3-.795609-2.683901-1.55874-2.12132-2.12132-1.55874-2.683901-.795609-3 0-3Z"/>
</g>
<g clip-path="url(#clip_28)">
<path transform="matrix(1.258081,0,0,-1.258081,416.9509,284.7575)" d="M0-3C.795609-3 1.55874-2.683901 2.12132-2.12132 2.683901-1.55874 3-.795609 3 0 3 .795609 2.683901 1.55874 2.12132 2.12132 1.55874 2.683901 .795609 3 0 3-.795609 3-1.55874 2.683901-2.12132 2.12132-2.683901 1.55874-3 .795609-3 0-3-.795609-2.683901-1.55874-2.12132-2.12132-1.55874-2.683901-.795609-3 0-3Z" fill="#3ba3ec"/>
<path transform="matrix(1.258081,0,0,-1.258081,416.9509,284.7575)" stroke-width="1" stroke-linecap="butt" stroke-linejoin="round" fill="none" stroke="#3ba3ec" d="M0-3C.795609-3 1.55874-2.683901 2.12132-2.12132 2.683901-1.55874 3-.795609 3 0 3 .795609 2.683901 1.55874 2.12132 2.12132 1.55874 2.683901 .795609 3 0 3-.795609 3-1.55874 2.683901-2.12132 2.12132-2.683901 1.55874-3 .795609-3 0-3-.795609-2.683901-1.55874-2.12132-2.12132-1.55874-2.683901-.795609-3 0-3Z"/>
</g>
<g clip-path="url(#clip_29)">
<path transform="matrix(1.258081,0,0,-1.258081,509.1949,243.06769)" d="M0-3C.795609-3 1.55874-2.683901 2.12132-2.12132 2.683901-1.55874 3-.795609 3 0 3 .795609 2.683901 1.55874 2.12132 2.12132 1.55874 2.683901 .795609 3 0 3-.795609 3-1.55874 2.683901-2.12132 2.12132-2.683901 1.55874-3 .795609-3 0-3-.795609-2.683901-1.55874-2.12132-2.12132-1.55874-2.683901-.795609-3 0-3Z" fill="#3ba3ec"/>
<path transform="matrix(1.258081,0,0,-1.258081,509.1949,243.06769)" stroke-width="1" stroke-linecap="butt" stroke-linejoin="round" fill="none" stroke="#3ba3ec" d="M0-3C.795609-3 1.55874-2.683901 2.12132-2.12132 2.683901-1.55874 3-.795609 3 0 3 .795609 2.683901 1.55874 2.12132 2.12132 1.55874 2.683901 .795609 3 0 3-.795609 3-1.55874 2.683901-2.12132 2.12132-2.683901 1.55874-3 .795609-3 0-3-.795609-2.683901-1.55874-2.12132-2.12132-1.55874-2.683901-.795609-3 0-3Z"/>
</g>
<g clip-path="url(#clip_30)">
<path transform="matrix(1.258081,0,0,-1.258081,2.763615,543.8909)" stroke-width="2" stroke-linecap="butt" stroke-dasharray="12.8,3.2,2,3.2" stroke-linejoin="round" fill="none" stroke="#50b131" d="M72.59727 340.6932 145.9185 300.7344 237.57 337.2514 329.2215 336.764 402.5427 204.7227"/>
</g>
<g clip-path="url(#clip_31)">
<path transform="matrix(1.258081,0,0,-1.258081,94.09685,115.27139)" d="M-3-3H3V3H-3Z" fill="#50b131"/>
<path transform="matrix(1.258081,0,0,-1.258081,94.09685,115.27139)" stroke-width="1" stroke-linecap="butt" stroke-miterlimit="10" stroke-linejoin="miter" fill="none" stroke="#50b131" d="M-3-3H3V3H-3Z"/>
</g>
<g clip-path="url(#clip_32)">
<path transform="matrix(1.258081,0,0,-1.258081,186.3409,165.54279)" d="M-3-3H3V3H-3Z" fill="#50b131"/>
<path transform="matrix(1.258081,0,0,-1.258081,186.3409,165.54279)" stroke-width="1" stroke-linecap="butt" stroke-miterlimit="10" stroke-linejoin="miter" fill="none" stroke="#50b131" d="M-3-3H3V3H-3Z"/>
</g>
<g clip-path="url(#clip_33)">
<path transform="matrix(1.258081,0,0,-1.258081,301.6459,119.60141)" d="M-3-3H3V3H-3Z" fill="#50b131"/>
<path transform="matrix(1.258081,0,0,-1.258081,301.6459,119.60141)" stroke-width="1" stroke-linecap="butt" stroke-miterlimit="10" stroke-linejoin="miter" fill="none" stroke="#50b131" d="M-3-3H3V3H-3Z"/>
</g>
<g clip-path="url(#clip_34)">
<path transform="matrix(1.258081,0,0,-1.258081,416.9509,120.21451)" d="M-3-3H3V3H-3Z" fill="#50b131"/>
<path transform="matrix(1.258081,0,0,-1.258081,416.9509,120.21451)" stroke-width="1" stroke-linecap="butt" stroke-miterlimit="10" stroke-linejoin="miter" fill="none" stroke="#50b131" d="M-3-3H3V3H-3Z"/>
</g>
<g clip-path="url(#clip_35)">
<path transform="matrix(1.258081,0,0,-1.258081,509.1949,286.3332)" d="M-3-3H3V3H-3Z" fill="#50b131"/>
<path transform="matrix(1.258081,0,0,-1.258081,509.1949,286.3332)" stroke-width="1" stroke-linecap="butt" stroke-miterlimit="10" stroke-linejoin="miter" fill="none" stroke="#50b131" d="M-3-3H3V3H-3Z"/>
</g>
<g clip-path="url(#clip_36)">
<path transform="matrix(1.258081,0,0,-1.258081,2.763615,543.8909)" stroke-width="2" stroke-linecap="round" stroke-linejoin="round" fill="none" stroke="#f77189" d="M72.59727 368.1349 145.9185 385.5534 237.57 377.6424 329.2215 374.3286 402.5427 401.97"/>
</g>
<g clip-path="url(#clip_37)">
<path transform="matrix(1.258081,0,0,-1.258081,94.09685,80.747409)" d="M0 3-3-3H3Z" fill="#f77189"/>
<path transform="matrix(1.258081,0,0,-1.258081,94.09685,80.747409)" stroke-width="1" stroke-linecap="butt" stroke-miterlimit="10" stroke-linejoin="miter" fill="none" stroke="#f77189" d="M0 3-3-3H3Z"/>
</g>
<g clip-path="url(#clip_38)">
<path transform="matrix(1.258081,0,0,-1.258081,186.3409,58.833589)" d="M0 3-3-3H3Z" fill="#f77189"/>
<path transform="matrix(1.258081,0,0,-1.258081,186.3409,58.833589)" stroke-width="1" stroke-linecap="butt" stroke-miterlimit="10" stroke-linejoin="miter" fill="none" stroke="#f77189" d="M0 3-3-3H3Z"/>
</g>
<g clip-path="url(#clip_39)">
<path transform="matrix(1.258081,0,0,-1.258081,301.6459,68.786197)" d="M0 3-3-3H3Z" fill="#f77189"/>
<path transform="matrix(1.258081,0,0,-1.258081,301.6459,68.786197)" stroke-width="1" stroke-linecap="butt" stroke-miterlimit="10" stroke-linejoin="miter" fill="none" stroke="#f77189" d="M0 3-3-3H3Z"/>
</g>
<g clip-path="url(#clip_40)">
<path transform="matrix(1.258081,0,0,-1.258081,416.9509,72.9552)" d="M0 3-3-3H3Z" fill="#f77189"/>
<path transform="matrix(1.258081,0,0,-1.258081,416.9509,72.9552)" stroke-width="1" stroke-linecap="butt" stroke-miterlimit="10" stroke-linejoin="miter" fill="none" stroke="#f77189" d="M0 3-3-3H3Z"/>
</g>
<g clip-path="url(#clip_41)">
<path transform="matrix(1.258081,0,0,-1.258081,509.1949,38.180116)" d="M0 3-3-3H3Z" fill="#f77189"/>
<path transform="matrix(1.258081,0,0,-1.258081,509.1949,38.180116)" stroke-width="1" stroke-linecap="butt" stroke-miterlimit="10" stroke-linejoin="miter" fill="none" stroke="#f77189" d="M0 3-3-3H3Z"/>
</g>
<g clip-path="url(#clip_42)">
<path transform="matrix(1.258081,0,0,-1.258081,2.763615,543.8909)" stroke-width="1" stroke-linecap="square" stroke-miterlimit="10" stroke-linejoin="miter" fill="none" stroke="#4c4d4c" d="M56.1 43.5V419.04"/>
<path transform="matrix(1.258081,0,0,-1.258081,2.763615,543.8909)" stroke-width="1" stroke-linecap="square" stroke-miterlimit="10" stroke-linejoin="miter" fill="none" stroke="#4c4d4c" d="M419.04 43.5V419.04"/>
<path transform="matrix(1.258081,0,0,-1.258081,2.763615,543.8909)" stroke-width="1" stroke-linecap="square" stroke-miterlimit="10" stroke-linejoin="miter" fill="none" stroke="#4c4d4c" d="M56.1 43.5H419.04"/>
<path transform="matrix(1.258081,0,0,-1.258081,2.763615,543.8909)" stroke-width="1" stroke-linecap="square" stroke-miterlimit="10" stroke-linejoin="miter" fill="none" stroke="#4c4d4c" d="M56.1 419.04H419.04"/>
<g>
<path transform="matrix(1.258081,0,0,-1.258081,2.763615,543.8909)" d="M289.1369 49.5H413.04V104.6625H289.1369Z" fill="#ffffff" fill-opacity=".8"/>
<path transform="matrix(1.258081,0,0,-1.258081,2.763615,543.8909)" stroke-width="1" stroke-linecap="butt" stroke-miterlimit="10" stroke-linejoin="miter" fill="none" stroke="#cccccc" stroke-opacity=".8" d="M289.1369 49.5H413.04V104.6625H289.1369Z"/>
</g>
<path transform="matrix(1.258081,0,0,-1.258081,2.763615,543.8909)" stroke-width="2" stroke-linecap="butt" stroke-dasharray="2,3.3" stroke-linejoin="round" fill="none" stroke="#3ba3ec" d="M293.9369 95.35937H305.9369 317.9369"/>
<path transform="matrix(1.258081,0,0,-1.258081,2.763615,543.8909)" d="M305.9369 92.35938C306.7325 92.35938 307.4956 92.67547 308.0582 93.23806 308.6208 93.80064 308.9369 94.56377 308.9369 95.35937 308.9369 96.15498 308.6208 96.91812 308.0582 97.48069 307.4956 98.04328 306.7325 98.35937 305.9369 98.35937 305.1413 98.35937 304.3781 98.04328 303.8156 97.48069 303.253 96.91812 302.9369 96.15498 302.9369 95.35937 302.9369 94.56377 303.253 93.80064 303.8156 93.23806 304.3781 92.67547 305.1413 92.35938 305.9369 92.35938Z" fill="#3ba3ec"/>
<path transform="matrix(1.258081,0,0,-1.258081,2.763615,543.8909)" stroke-width="1" stroke-linecap="butt" stroke-linejoin="round" fill="none" stroke="#3ba3ec" d="M305.9369 92.35938C306.7325 92.35938 307.4956 92.67547 308.0582 93.23806 308.6208 93.80064 308.9369 94.56377 308.9369 95.35937 308.9369 96.15498 308.6208 96.91812 308.0582 97.48069 307.4956 98.04328 306.7325 98.35937 305.9369 98.35937 305.1413 98.35937 304.3781 98.04328 303.8156 97.48069 303.253 96.91812 302.9369 96.15498 302.9369 95.35937 302.9369 94.56377 303.253 93.80064 303.8156 93.23806 304.3781 92.67547 305.1413 92.35938 305.9369 92.35938Z"/>
<path transform="matrix(1,0,0,-1,0,552)" d="M424.101 125.7238C424.101 124.7878 423.7538 124.0782 423.0895 123.5649 422.4102 123.0516 421.4742 122.795 420.2815 122.795H416.0694V133.1817H419.8437C422.2743 133.1817 423.4971 132.3362 423.4971 130.6605 423.4971 130.0415 423.316 129.5282 422.9838 129.1055 422.6366 128.6828 422.1535 128.411 421.5194 128.2752 422.3347 128.1695 422.9688 127.8977 423.4217 127.4448 423.8746 126.9919 424.101 126.4182 424.101 125.7238ZM422.078 130.4944C422.078 131.0379 421.8818 131.4455 421.5043 131.6871 421.1118 131.9286 420.5683 132.0494 419.8437 132.0494H417.4735V128.7734H419.8437C420.5985 128.7734 421.1571 128.9092 421.5194 129.1961 421.8818 129.4678 422.078 129.9056 422.078 130.4944ZM422.6819 125.8295C422.6819 127.0523 421.8214 127.6713 420.1003 127.6713H417.4735V123.9272H420.206C421.0665 123.9272 421.7006 124.0782 422.0931 124.3952 422.4856 124.7123 422.6819 125.1954 422.6819 125.8295Z" fill="#262626"/>
<path transform="matrix(1,0,0,-1,0,552)" d="M433.5064 122.795 432.3138 125.8295H427.5884L426.3958 122.795H424.9314L429.1736 133.1817H430.7739L434.9406 122.795H433.5064ZM429.9436 132.1249 429.8832 131.9135C429.7624 131.4908 429.5812 130.9775 429.3397 130.3434L428.0111 126.9315H431.8911L430.5625 130.3585C430.4116 130.6907 430.2757 131.0832 430.1549 131.5059L429.9436 132.1249Z" fill="#262626"/>
<path transform="matrix(1,0,0,-1,0,552)" d="M442.942 122.795 437.3864 131.6418 437.4316 130.9322 437.4618 129.6943V122.795H436.2088V133.1817H437.8393L443.4704 124.2745C443.41 125.2407 443.3799 125.9351 443.3799 126.3729V133.1817H444.648V122.795H442.942Z" fill="#262626"/>
<path transform="matrix(1,0,0,-1,0,552)" d="M455.9405 122.795V129.7245C455.9405 130.4793 455.9556 131.2191 456.0009 131.9286 455.7594 131.053 455.5329 130.3585 455.3518 129.8754L452.6796 122.795H451.6832L448.9657 129.8754 448.5581 131.1285 448.3166 131.9286 448.3317 131.1134 448.3619 129.7245V122.795H447.1088V133.1817H448.9657L451.7285 125.9804C451.8191 125.6785 451.9096 125.3765 452.0002 125.0444 452.0908 124.7123 452.1512 124.4707 452.1814 124.3349 452.2116 124.516 452.3022 124.818 452.4229 125.2256 452.5437 125.6181 452.6343 125.8747 452.6947 125.9804L455.397 133.1817H457.2087V122.795H455.9405Z" fill="#262626"/>
<path transform="matrix(1,0,0,-1,0,552)" d="M466.2065 126.7957C466.2065 125.3916 465.8894 124.3499 465.2856 123.6706 464.6666 122.9912 463.7759 122.6591 462.6134 122.6591 461.4358 122.6591 460.5602 123.0063 459.9714 123.7159 459.3675 124.4103 459.0807 125.4369 459.0807 126.7957 459.0807 129.5433 460.2734 130.9171 462.6587 130.9171 463.8664 130.9171 464.7723 130.5699 465.3459 129.9056 465.9196 129.2414 466.2065 128.1997 466.2065 126.7957ZM464.8176 126.7957C464.8176 127.8826 464.6515 128.6828 464.3194 129.181 463.9872 129.6792 463.4437 129.9358 462.6738 129.9358 461.8887 129.9358 461.3302 129.6792 460.9829 129.1659 460.6357 128.6526 460.4696 127.8675 460.4696 126.7957 460.4696 125.7389 460.6357 124.9387 460.9829 124.4103 461.3151 123.8819 461.8585 123.6253 462.5983 123.6253 463.3833 123.6253 463.957 123.8819 464.3043 124.3952 464.6364 124.9085 464.8176 125.7087 464.8176 126.7957Z" fill="#262626"/>
<path transform="matrix(1.258081,0,0,-1.258081,2.763615,543.8909)" stroke-width="2" stroke-linecap="butt" stroke-dasharray="12.8,3.2,2,3.2" stroke-linejoin="round" fill="none" stroke="#50b131" d="M293.9369 78.17188H305.9369 317.9369"/>
<path transform="matrix(1.258081,0,0,-1.258081,2.763615,543.8909)" d="M302.9369 75.17188H308.9369V81.17188H302.9369Z" fill="#50b131"/>
<path transform="matrix(1.258081,0,0,-1.258081,2.763615,543.8909)" stroke-width="1" stroke-linecap="butt" stroke-miterlimit="10" stroke-linejoin="miter" fill="none" stroke="#50b131" d="M302.9369 75.17188H308.9369V81.17188H302.9369Z"/>
<path transform="matrix(1,0,0,-1,0,552)" d="M425.0068 106.4707C425.0068 105.3988 424.7955 104.4628 424.3728 103.6627 423.9501 102.8475 423.3613 102.2285 422.6064 101.8058 421.8365 101.3831 420.9458 101.1717 419.9494 101.1717H416.0694V111.5584H419.5115C421.2628 111.5584 422.6064 111.1055 423.5726 110.2299 424.5237 109.3543 425.0068 108.1012 425.0068 106.4707ZM423.6028 106.4707C423.6028 107.754 423.2405 108.7353 422.5309 109.4146 421.8214 110.0789 420.8099 110.4261 419.4814 110.4261H417.4735V102.304H419.7984C420.5532 102.304 421.2175 102.47 421.7912 102.8022 422.3649 103.1343 422.8178 103.6023 423.1348 104.2364 423.4368 104.8705 423.6028 105.6102 423.6028 106.4707Z" fill="#262626"/>
<path transform="matrix(1,0,0,-1,0,552)" d="M426.7732 101.1717V107.286C426.7732 107.8446 426.7581 108.4635 426.7279 109.1429H427.9809C428.0111 108.2371 428.0413 107.6936 428.0413 107.5124H428.0715C428.2829 108.1918 428.5244 108.6598 428.7962 108.9164 429.0679 109.158 429.4604 109.2939 429.9737 109.2939 430.1398 109.2939 430.321 109.2637 430.5021 109.2184V108.0106C430.321 108.0559 430.0945 108.0861 429.8077 108.0861 429.2491 108.0861 428.8264 107.8446 428.5395 107.3615 428.2376 106.8784 428.1017 106.199 428.1017 105.3234V101.1717H426.7732Z" fill="#262626"/>
<path transform="matrix(1,0,0,-1,0,552)" d="M432.7969 104.8856C432.7969 103.9646 432.978 103.2551 433.3555 102.7569 433.7329 102.2587 434.2915 102.0171 435.0161 102.0171 435.5898 102.0171 436.0427 102.1228 436.39 102.3644 436.7372 102.5908 436.9787 102.8777 437.0995 103.24L438.2771 102.9078C437.794 101.6548 436.707 101.0358 435.0161 101.0358 433.8386 101.0358 432.9328 101.3831 432.3138 102.0775 431.6948 102.772 431.3929 103.8288 431.3929 105.2177 431.3929 106.516 431.6948 107.5275 432.3138 108.2371 432.9328 108.9315 433.8235 109.2939 434.9708 109.2939 437.3109 109.2939 438.4884 107.8748 438.4884 105.0516V104.8856H432.7969ZM437.1146 105.897C437.0391 106.7274 436.8278 107.3313 436.4654 107.7238 436.1031 108.1163 435.6049 108.3126 434.9406 108.3126 434.2915 108.3126 433.7782 108.0861 433.4159 107.6634 433.0384 107.2407 432.8422 106.6519 432.812 105.897H437.1146Z" fill="#262626"/>
<path transform="matrix(1,0,0,-1,0,552)" d="M442.2023 101.0358C441.4022 101.0358 440.7983 101.2321 440.3907 101.6548 439.983 102.0775 439.7868 102.6512 439.7868 103.391 439.7868 104.2062 440.0585 104.8403 440.602 105.2932 441.1455 105.731 442.0211 105.9725 443.244 106.0027L445.0254 106.0329V106.4707C445.0254 107.1199 444.8745 107.5879 444.6027 107.8597 444.331 108.1314 443.8932 108.2824 443.3195 108.2824 442.7156 108.2824 442.2929 108.1767 442.0211 107.9804 441.7494 107.7691 441.5833 107.452 441.538 107.0142L440.1491 107.1501C440.3605 108.5692 441.4323 109.2939 443.3497 109.2939 444.3461 109.2939 445.0858 109.0523 445.5991 108.5994 446.1124 108.1465 446.3691 107.4822 446.3691 106.6066V103.1796C446.3691 102.7871 446.4143 102.4851 446.52 102.2889 446.6257 102.0775 446.822 101.9869 447.1088 101.9869 447.2296 101.9869 447.3806 102.002 447.5466 102.0473V101.217C447.2145 101.1566 446.8673 101.1113 446.52 101.1113 446.0218 101.1113 445.6595 101.2321 445.4481 101.4887 445.2217 101.7303 445.1009 102.1379 445.0707 102.6965H445.0254C444.6782 102.0926 444.2857 101.6548 443.8328 101.4132 443.3799 101.1717 442.8364 101.0358 442.2023 101.0358ZM442.5042 102.0171C442.9873 102.0171 443.4251 102.1228 443.8026 102.3493 444.18 102.5606 444.4819 102.8626 444.6933 103.2551 444.9046 103.6476 445.0254 104.0401 445.0254 104.4477V105.112L443.5761 105.0818C442.942 105.0667 442.474 105.0063 442.157 104.8856 441.8249 104.7648 441.5833 104.5836 441.4172 104.3421 441.2361 104.1005 441.1606 103.7684 441.1606 103.3759 441.1606 102.938 441.2663 102.6059 441.5078 102.3644 441.7343 102.1228 442.0664 102.0171 442.5042 102.0171Z" fill="#262626"/>
<path transform="matrix(1,0,0,-1,0,552)" d="M453.208 101.1717V106.2292C453.208 106.9991 453.1023 107.5275 452.8909 107.8295 452.6796 108.1163 452.2871 108.2673 451.7436 108.2673 451.1699 108.2673 450.7321 108.0408 450.3999 107.6181 450.0678 107.1803 449.9168 106.5764 449.9168 105.7914V101.1717H448.5883V107.452C448.5883 108.373 448.5732 108.9315 448.543 109.1429H449.7961C449.7961 109.1127 449.8112 109.0523 449.8112 108.9466 449.8112 108.8259 449.8263 108.7051 449.8263 108.5692 449.8263 108.4333 449.8414 108.1767 449.8565 107.7842H449.8866C450.1584 108.3428 450.4905 108.7353 450.8529 108.9617 451.2152 109.1731 451.6681 109.2939 452.2116 109.2939 452.8155 109.2939 453.2835 109.1731 453.6458 108.9315 453.993 108.69 454.2346 108.2975 454.3855 107.7842H454.4006C454.6724 108.3126 455.0045 108.69 455.397 108.9315 455.7896 109.1731 456.2576 109.2939 456.8162 109.2939 457.6163 109.2939 458.2051 109.0674 458.5674 108.6296 458.9297 108.1918 459.126 107.4822 459.126 106.4858V101.1717H457.8126V106.2292C457.8126 106.9991 457.7069 107.5275 457.4955 107.8295 457.2842 108.1163 456.8916 108.2673 456.3482 108.2673 455.7745 108.2673 455.3216 108.0408 455.0045 107.6181 454.6724 107.1954 454.5214 106.5764 454.5214 105.7914V101.1717H453.208Z" fill="#262626"/>
<path transform="matrix(1,0,0,-1,0,552)" d="M470.1921 101.1717V108.1012C470.1921 108.8561 470.2072 109.5958 470.2525 110.3054 470.0109 109.4297 469.7845 108.7353 469.6033 108.2522L466.9311 101.1717H465.9347L463.2173 108.2522 462.8097 109.5052 462.5681 110.3054 462.5832 109.4901 462.6134 108.1012V101.1717H461.3603V111.5584H463.2173L465.98 104.3572C466.0706 104.0552 466.1612 103.7533 466.2518 103.4211 466.3423 103.089 466.4027 102.8475 466.4329 102.7116 466.4631 102.8928 466.5537 103.1947 466.6745 103.6023 466.7953 103.9948 466.8858 104.2515 466.9462 104.3572L469.6486 111.5584H471.4602V101.1717H470.1921Z" fill="#262626"/>
<path transform="matrix(1,0,0,-1,0,552)" d="M474.7363 104.8856C474.7363 103.9646 474.9174 103.2551 475.2949 102.7569 475.6723 102.2587 476.2309 102.0171 476.9555 102.0171 477.5292 102.0171 477.9821 102.1228 478.3293 102.3644 478.6766 102.5908 478.9181 102.8777 479.0389 103.24L480.2165 102.9078C479.7334 101.6548 478.6464 101.0358 476.9555 101.0358 475.778 101.0358 474.8721 101.3831 474.2532 102.0775 473.6342 102.772 473.3322 103.8288 473.3322 105.2177 473.3322 106.516 473.6342 107.5275 474.2532 108.2371 474.8721 108.9315 475.7629 109.2939 476.9102 109.2939 479.2503 109.2939 480.4278 107.8748 480.4278 105.0516V104.8856H474.7363ZM479.054 105.897C478.9785 106.7274 478.7672 107.3313 478.4048 107.7238 478.0425 108.1163 477.5443 108.3126 476.88 108.3126 476.2309 108.3126 475.7176 108.0861 475.3552 107.6634 474.9778 107.2407 474.7816 106.6519 474.7514 105.897H479.054Z" fill="#262626"/>
<path transform="matrix(1,0,0,-1,0,552)" d="M488.0971 103.3759C488.0971 102.621 487.8102 102.0322 487.2366 101.6397 486.6629 101.2321 485.8778 101.0358 484.8663 101.0358 483.8699 101.0358 483.1 101.1868 482.5565 101.5189 482.013 101.836 481.6658 102.3493 481.5148 103.0437L482.6773 103.2702C482.798 102.8475 483.0245 102.5304 483.3868 102.3342 483.7341 102.1228 484.2323 102.0322 484.8663 102.0322 485.5306 102.0322 486.0137 102.1228 486.3307 102.3342 486.6327 102.5455 486.7987 102.8475 486.7987 103.2702 486.7987 103.5721 486.678 103.8288 486.4666 104.025 486.2553 104.2213 485.908 104.3874 485.44 104.5232L484.4889 104.7799C483.719 104.961 483.1755 105.1573 482.8584 105.3536 482.5263 105.5347 482.2847 105.7763 482.1036 106.048 481.9224 106.3198 481.8318 106.6519 481.8318 107.0444 481.8318 107.7691 482.0885 108.3126 482.6018 108.7051 483.1151 109.0825 483.8699 109.2788 484.8663 109.2788 485.742 109.2788 486.4515 109.1127 486.9648 108.8108 487.4781 108.4937 487.8102 107.9955 487.9612 107.3162L486.7535 107.1652C486.678 107.5275 486.4817 107.7993 486.1647 107.9804 485.8325 108.1616 485.4098 108.2673 484.8663 108.2673 484.2625 108.2673 483.8246 108.1767 483.5378 107.9955 483.251 107.8144 483.1151 107.5275 483.1151 107.1652 483.1151 106.9387 483.1755 106.7576 483.2962 106.6066 483.417 106.4556 483.5831 106.3349 483.8246 106.2292 484.0511 106.1235 484.5342 105.9876 485.2739 105.8065 485.9684 105.6253 486.4817 105.4743 486.7987 105.3234 487.1007 105.1724 487.3422 105.0063 487.5234 104.8252 487.7046 104.644 487.8404 104.4326 487.9461 104.1911 488.0367 103.9495 488.0971 103.6778 488.0971 103.3759Z" fill="#262626"/>
<path transform="matrix(1,0,0,-1,0,552)" d="M490.9806 107.7842C491.2523 108.2975 491.5996 108.69 492.0072 108.9315 492.3997 109.1731 492.913 109.2939 493.532 109.2939 494.3925 109.2939 495.0266 109.0674 495.4342 108.6447 495.8418 108.222 496.0532 107.4973 496.0532 106.4858V101.1717H494.7247V106.2292C494.7247 106.7878 494.6643 107.2105 494.5586 107.4822 494.4529 107.754 494.2868 107.9502 494.0453 108.071 493.8037 108.1918 493.4867 108.2673 493.0791 108.2673 492.445 108.2673 491.9468 108.0408 491.5694 107.6181 491.192 107.1803 491.0108 106.6066 491.0108 105.882V101.1717H489.6823V112.117H491.0108V109.2637C491.0108 108.9617 490.9957 108.6447 490.9806 108.3277 490.9655 108.0106 490.9504 107.8295 490.9504 107.7842H490.9806Z" fill="#262626"/>
<path transform="matrix(1,0,0,-1,0,552)" d="M503.5262 103.5268V101.1717H502.2731V103.5268H497.3817V104.5534L502.1373 111.5584H503.5262V104.5685H504.9906V103.5268H503.5262ZM502.2731 110.0638C502.258 110.0336 502.1826 109.8977 502.0618 109.6713 501.941 109.4297 501.8353 109.2788 501.7749 109.1882L499.1179 105.263 498.7253 104.7195 498.6046 104.5685H502.2731V110.0638Z" fill="#262626"/>
<path transform="matrix(1,0,0,-1,0,552)" d="M515.6038 106.4707C515.6038 105.3988 515.3924 104.4628 514.9697 103.6627 514.547 102.8475 513.9582 102.2285 513.2033 101.8058 512.4334 101.3831 511.5427 101.1717 510.5463 101.1717H506.6664V111.5584H510.1085C511.8597 111.5584 513.2033 111.1055 514.1695 110.2299 515.1207 109.3543 515.6038 108.1012 515.6038 106.4707ZM514.1997 106.4707C514.1997 107.754 513.8374 108.7353 513.1279 109.4146 512.4183 110.0789 511.4068 110.4261 510.0783 110.4261H508.0704V102.304H510.3953C511.1502 102.304 511.8144 102.47 512.3881 102.8022 512.9618 103.1343 513.4147 103.6023 513.7317 104.2364 514.0337 104.8705 514.1997 105.6102 514.1997 106.4707Z" fill="#262626"/>
<path transform="matrix(1.258081,0,0,-1.258081,2.763615,543.8909)" stroke-width="2" stroke-linecap="round" stroke-linejoin="round" fill="none" stroke="#f77189" d="M293.9369 60.98438H305.9369 317.9369"/>
<path transform="matrix(1.258081,0,0,-1.258081,2.763615,543.8909)" d="M305.9369 63.98438 302.9369 57.98438H308.9369Z" fill="#f77189"/>
<path transform="matrix(1.258081,0,0,-1.258081,2.763615,543.8909)" stroke-width="1" stroke-linecap="butt" stroke-miterlimit="10" stroke-linejoin="miter" fill="none" stroke="#f77189" d="M305.9369 63.98438 302.9369 57.98438H308.9369Z"/>
<path transform="matrix(1,0,0,-1,0,552)" d="M425.8523 84.78708C425.8523 83.7001 425.6409 82.74899 425.2182 81.93375 424.7955 81.11852 424.2067 80.48444 423.4368 80.06173 422.6517 79.62392 421.7459 79.41256 420.6891 79.41256 419.6172 79.41256 418.6963 79.62392 417.9264 80.04663 417.1413 80.46935 416.5525 81.10342 416.1449 81.91866 415.7373 82.73389 415.541 83.7001 415.541 84.78708 415.541 86.44775 415.994 87.74609 416.8998 88.6821 417.8056 89.61811 419.0737 90.08612 420.7042 90.08612 421.761 90.08612 422.6668 89.87476 423.4519 89.45205 424.2218 89.02933 424.8106 88.42545 425.2333 87.62531 425.6409 86.82517 425.8523 85.87406 425.8523 84.78708ZM424.4181 84.78708C424.4181 86.08542 424.0859 87.09692 423.4368 87.83667 422.7876 88.56132 421.8818 88.93875 420.7042 88.93875 419.5115 88.93875 418.5906 88.57642 417.9415 87.85177 417.2923 87.12711 416.9753 86.10052 416.9753 84.78708 416.9753 83.48874 417.2923 82.44705 417.9566 81.6922 418.6057 80.92226 419.5115 80.54483 420.6891 80.54483 421.8818 80.54483 422.8027 80.90716 423.4519 81.64691 424.0859 82.38666 424.4181 83.42835 424.4181 84.78708Z" fill="#262626"/>
<path transform="matrix(1,0,0,-1,0,552)" d="M428.8868 87.51963V82.46215C428.8868 81.93375 428.9321 81.52614 429.0377 81.23929 429.1434 80.93735 429.3095 80.726 429.5359 80.60522 429.7624 80.48444 430.0945 80.42406 430.5323 80.42406 431.1664 80.42406 431.6797 80.63541 432.042 81.07323 432.4044 81.51104 432.6006 82.11492 432.6006 82.89996V87.51963H433.9292V81.25439C433.9292 80.31838 433.9442 79.75979 433.9744 79.54843H432.7214C432.7063 79.56353 432.6912 79.62392 432.6912 79.74469 432.6912 79.85037 432.6761 79.97115 432.6761 80.12212 432.6761 80.25799 432.661 80.51464 432.661 80.90716H432.6308C432.3289 80.36367 431.9665 79.97115 431.574 79.74469 431.1815 79.53334 430.6833 79.41256 430.0794 79.41256 429.2038 79.41256 428.5697 79.62392 428.1621 80.06173 427.7545 80.48444 427.5582 81.2091 427.5582 82.2055V87.51963H428.8868Z" fill="#262626"/>
<path transform="matrix(1,0,0,-1,0,552)" d="M436.0125 79.54843V85.66271C436.0125 86.22129 435.9974 86.84027 435.9672 87.51963H437.2203C437.2505 86.61381 437.2807 86.07032 437.2807 85.88916H437.3109C437.5222 86.56852 437.7638 87.03653 438.0355 87.29318 438.3073 87.53473 438.6998 87.6706 439.2131 87.6706 439.3792 87.6706 439.5603 87.64041 439.7415 87.59512V86.38736C439.5603 86.43265 439.3339 86.46285 439.047 86.46285 438.4884 86.46285 438.0657 86.22129 437.7789 85.73819 437.4769 85.25509 437.3411 84.57572 437.3411 83.7001V79.54843H436.0125Z" fill="#262626"/>
<path transform="matrix(1,0,0,-1,0,552)" d="M447.0031 81.75259C447.0031 80.99774 446.7163 80.40896 446.1426 80.01644 445.5689 79.60882 444.7839 79.41256 443.7724 79.41256 442.776 79.41256 442.006 79.56353 441.4625 79.89566 440.919 80.2127 440.5718 80.726 440.4208 81.42046L441.5833 81.64691C441.7041 81.2242 441.9305 80.90716 442.2929 80.7109 442.6401 80.49954 443.1383 80.40896 443.7724 80.40896 444.4366 80.40896 444.9197 80.49954 445.2368 80.7109 445.5387 80.92226 445.7048 81.2242 445.7048 81.64691 445.7048 81.94885 445.584 82.2055 445.3727 82.40176 445.1613 82.59802 444.8141 82.76409 444.3461 82.89996L443.395 83.15661C442.625 83.33777 442.0815 83.53403 441.7645 83.73029 441.4323 83.91146 441.1908 84.15301 441.0096 84.42475 440.8285 84.6965 440.7379 85.02863 440.7379 85.42115 440.7379 86.14581 440.9945 86.6893 441.5078 87.08182 442.0211 87.45925 442.776 87.65551 443.7724 87.65551 444.648 87.65551 445.3576 87.48944 445.8709 87.1875 446.3842 86.87046 446.7163 86.37226 446.8673 85.6929L445.6595 85.54193C445.584 85.90426 445.3878 86.176 445.0707 86.35717 444.7386 86.53833 444.3159 86.64401 443.7724 86.64401 443.1685 86.64401 442.7307 86.55343 442.4438 86.37226 442.157 86.1911 442.0211 85.90426 442.0211 85.54193 442.0211 85.31548 442.0815 85.13431 442.2023 84.98334 442.3231 84.83237 442.4891 84.7116 442.7307 84.60592 442.9571 84.50024 443.4402 84.36437 444.18 84.1832 444.8745 84.00204 445.3878 83.85107 445.7048 83.7001 446.0067 83.54913 446.2483 83.38306 446.4294 83.2019 446.6106 83.02074 446.7465 82.80938 446.8522 82.56783 446.9427 82.32628 447.0031 82.05453 447.0031 81.75259Z" fill="#262626"/>
</g>
<path transform="matrix(1,0,0,-1,0,552)" d="M2.763654 192.9091V401.7091H34.18184V192.9091Z" fill="#ffffff"/>
<text xml:space="preserve" transform="matrix(0 -.2181818 .2181818 0 577.0707 298.90913)" font-size="91.99999" font-family="LinBiolinum"><tspan y="-2530" x="0 61.8792 108.8544 135.7828 186.7692 209.6864 245.77802 285.3104 331.1448 363.8048">CLIP score</tspan></text>
<path transform="matrix(1,0,0,-1,0,552)" d="M197.8182 40.40002H406.4V8.763639H197.8182Z" fill="#ffffff"/>
<text xml:space="preserve" transform="matrix(.2181818 0 -0 .2181818 216.8315 1086.1091)" font-size="91.99999" font-family="LinBiolinum"><tspan y="-2530" x="0 57.867998 107.143199 152.9776 175.89479 217.14759 240.06479 285.8992 314.548 337.4652 376.9976 422.832 464.6552 505.90803 538.568 582.682 628.5164 669.7692 692.6864">Angle of coverage (</tspan></text>
<text xml:space="preserve" transform="matrix(.2181818 0 -0 .2181818 373.9565 1086.1091)" font-size="91.99999" font-family="CambriaMath"><tspan y="-2530" x="0">&#x00b0;</tspan></text>
<text xml:space="preserve" transform="matrix(.2181818 0 -0 .2181818 381.4565 1086.1091)" font-size="91.99999" font-family="LinBiolinum"><tspan y="-2530" x="0">)</tspan></text>
<path transform="matrix(1,0,0,-1,0,552)" d="M406.4 134.2182H517.4546V94.94547H406.4Z" fill="#ffffff"/>
<text xml:space="preserve" transform="matrix(.2181818 0 -0 .2181818 413.6724 980.94546)" font-size="72.99999" font-family="LinBiolinum"><tspan y="-2530" x="0 45.26 91.687999 144.394 209.14499">BANMo</tspan></text>
<text xml:space="preserve" transform="matrix(.2181818 0 -0 .2181818 413.6724 1002.7636)" font-size="72.99999" font-family="LinBiolinum"><tspan y="-2530" x="0 52.136598 77.9202 111.14979 146.6424 205.64099 270.4066 303.6362 332.8508 372.9424 407.34">DreamMesh4D</tspan></text>
<path transform="matrix(1,0,0,-1,0,552)" d="M406.4 90.80002H517.2364V71.38183H406.4Z" fill="#ffffff"/>
<text xml:space="preserve" transform="matrix(.2181818 0 -0 .2181818 413.6724 1024.1454)" font-size="72.99999" font-family="LinBiolinum"><tspan y="-2530" x="0 54.4288 93.96559 119.77838">Ours</tspan></text>
</svg>
